<?xml version="1.0" encoding="UTF-8"?>
<svg id="Logo" xmlns="http://www.w3.org/2000/svg" version="1.1" viewBox="0 0 298.1 249.2">
  <!-- Generator: Adobe Illustrator 29.5.1, SVG Export Plug-In . SVG Version: 2.1.0 Build 141)  -->
  <defs>
    <style>
      .st0 {
        fill: #141428;
      }
    </style>
  </defs>
  <g>
    <path class="st0" d="M257,214.2l-9.4-11.3c4.9-1.1,8-4,8-8.9s-4.8-8.3-10.8-8.3h-18.8v28.6h4.9v-10.8h11.3l8.7,10.8h6.2ZM231,190h14.1c3.4,0,5.5,1.5,5.5,4.3s-2.1,4.6-5.5,4.6h-14.1v-8.9h0Z"/>
    <path class="st0" d="M55.9,185.5l-14.7,28.6h5.8l3.1-6.3h16.8l3.1,6.3h5.8l-14.7-28.6h-5.3ZM52.1,203.2l6.2-12.6,6.2,12.6h-12.3Z"/>
    <path class="st0" d="M102.1,189.2c4.6,0,8.7,1.8,10.6,4.9l4-2.8c-2.8-4-7.9-6.7-14.6-6.7-10.9,0-17.3,7.2-17.3,14.9s6.3,14.9,17.3,14.9,11.8-2.8,14.6-6.7l-4-2.8c-2,3.1-5.9,4.9-10.6,4.9-7.4,0-12.1-4.1-12.1-10.6s4.8-10.6,12.1-10.6h0v.3Z"/>
    <path class="st0" d="M147.6,189.2c4.6,0,8.7,1.8,10.6,4.9l4-2.8c-2.8-4-7.9-6.7-14.6-6.7-10.9,0-17.3,7.2-17.3,14.9s6.3,14.9,17.3,14.9,11.8-2.8,14.6-6.7l-4-2.8c-2,3.1-5.9,4.9-10.6,4.9-7.4,0-12.1-4.1-12.1-10.6s4.8-10.6,12.1-10.6h0v.3Z"/>
    <path class="st0" d="M193.1,184.8c-10.9,0-17.3,7.2-17.3,14.9s6.3,14.9,17.3,14.9,17.3-7.2,17.3-14.9-6.3-14.9-17.3-14.9ZM193.1,210.4c-7.4,0-12.1-4.1-12.1-10.6s4.8-10.6,12.1-10.6,12.1,4.1,12.1,10.6-4.8,10.6-12.1,10.6Z"/>
  </g>
  <g>
    <path class="st0" d="M209.3,161.9h-18.3c-7.8,0-11.8-1.8-14.6-5.4-3.1-4-3.1-10-3.1-15.8V34.5h23.6v109.7c0,8.7.9,14.8,12.3,17.3v.3h.1Z"/>
    <path class="st0" d="M161.3,161.9h-29.6l-21.9-45.5c-11.9,6.5-18.7,21.5-30.8,31.4-6.2,5.2-13.3,9.5-22.2,12.6-4,1.4-10.9,3.1-13.6,3.4-1.1,0-1.9,0-2-.3,0-.3.1-.5,1.4-1.1,1.4-.6,6.8-2.9,10.2-5.3,4.3-2.9,6.7-6.2,6.9-8.7-1.3-4.1-9.5-13.3-.9-30.1,3.1-6,5.8-10.3,7.5-14.7,2.1-4.9,3.8-12.1,4.1-17.3,0-.2,0-.2.3,0,4.1,4.1,20.2,20.9,18,37.3,5.4-2,14.7-8.3,19-11.6,4.5-3.5,7.4-7.3,12.2-7.3s4.6,2,8,2.5c.8,0,2.1,0,2.8-.3.3,0,.1-.5-.1-.5-4.6-1.1-5.8-4.9-11.8-4.9s-9.8,4.9-12.8,6.9l-15.3-31.7c-6.3-13.3-4.5-22.9,9.5-42l61.2,127.4h0l-.3-.3h.3Z"/>
    <path class="st0" d="M257,161.9h-18.3c-7.8,0-11.8-1.8-14.6-5.4-3.1-4-3.1-10-3.1-15.8V34.5h23.6v109.7c0,8.7.9,14.8,12.3,17.3v.3h.1Z"/>
  </g>
</svg>