<?xml version="1.0" encoding="UTF-8"?>
<svg id="Calque_1" data-name="Calque 1" xmlns="http://www.w3.org/2000/svg" viewBox="0 0 1637.06 412.17">
  <defs>
    <style>
      .cls-1 {
        fill: #141428;
      }
    </style>
  </defs>
  <path class="cls-1" d="M117.43,3.52h-35.56L0,153.06h36.12l16.82-31.68h93.38l16.89,31.68h36.08L117.43,3.52ZM69.13,92.16l30.72-55.77,30.32,55.77h-61.04ZM1297.19,3.52h-35.58l-81.81,149.54h36.05l16.88-31.68h93.36l16.81,31.68h36.06L1297.19,3.52ZM1248.87,92.16l30.72-55.77,30.34,55.77h-61.06ZM436.55,105.22c0,16.43-7.61,29.27-22.6,38.24-14.41,8.62-35.05,12.88-61.45,12.88-38.13,0-68.29-8.28-89.74-24.72l-3.21-2.44,18.17-23.08,3.28,1.92c22.07,13.03,46.18,19.72,71.77,19.72,16.32,0,29.04-2.18,37.84-6.42,7.58-3.69,11.25-8.44,11.25-14.52,0-4.43-1.52-10.71-14.66-14.04-5.94-1.47-22.51-3.11-49.34-4.77-24.89-1.61-42-4.83-52.3-9.79-12.81-6.19-19.23-16.67-19.23-31.21s7.11-26.47,21.22-34.91c13.47-8.06,32.5-12.07,56.7-12.07,32.18,0,59.62,7.19,81.54,21.55l4,2.64-20.15,21.56-2.85-1.38c-21.03-10.32-42.68-15.56-64.39-15.56-14.31,0-25.3,1.6-32.68,4.72-9.4,4-9.4,8.8-9.4,10.34,0,2.82,1.05,6.82,9.89,9.86,5.72,1.94,15.34,3.31,28.57,4.07,20.59,1.28,33.74,2.34,40.33,3.12,18.93,2.43,33.29,7.1,42.62,13.89,9.78,7.18,14.8,17.4,14.8,30.41M685.11,16.63c-9.49-8.76-22.41-13.11-38.39-13.11h-120.18v149.54h32.65v-53.92h82.88c18.31,0,32.65-4.07,42.41-12.09,10.06-8.23,15.18-20.1,15.18-35.36s-4.91-26.29-14.55-35.06M642.48,69.89h-83.29v-37.18h81.66c22.84,0,25.49,11.06,25.49,19.36s-2.75,17.81-23.86,17.81M1568.65,96.6c9.53-2.44,17.3-6.74,23.27-12.79,7.83-7.99,11.86-18.69,11.86-31.72,0-14.78-4.87-26.68-14.48-35.45-9.49-8.76-22.64-13.11-39.03-13.11h-119.57v149.54h32.64v-53.92h67.8l87.07,92.78h18.85l-68.4-95.33ZM1463.34,32.72h81.07c23.45,0,26.11,11.06,26.11,19.36s-2.73,17.81-23.89,17.81h-83.29v-37.18ZM916.87,123.83v29.22h-161.58V3.52h155.89v29.2h-123.25v28.2h85.67v29.28h-85.67v33.64h128.94ZM1161.72,32.72h-81.48v120.34h-30.23V32.72h-81.53V3.52h193.24v29.2Z"/>
  <path class="cls-1" d="M1204.37,280.49h15.94v84.1H407.64v-113.66h15.95v101.47h265.22v-71.92h15.95v71.92h60.75v-71.92h15.95v71.92h65.11v-71.92h15.94v71.92h228.51v-71.92h15.95v71.92h40.53v-71.92h15.95v71.92h40.9v-71.92ZM854.44,376.64c-6.35,0-11.06,4.03-11.06,9.02s4.62,8.93,11.06,8.93,11.14-4.04,11.14-8.93-4.7-9.02-11.14-9.02M784.02,376.64c-5.1,0-9.15,2.61-10.54,6.25-1.4-3.6-5.44-6.25-10.61-6.25-6.34,0-11.05,4.03-11.05,9.02s4.63,8.93,11.05,8.93c5.17,0,9.21-2.6,10.61-6.15,1.37,3.59,5.37,6.15,10.54,6.15,6.44,0,11.15-4.04,11.15-8.93s-4.71-9.02-11.15-9.02M687.15,266c5.16,0,9.21-2.61,10.61-6.16,1.37,3.6,5.36,6.16,10.54,6.16,6.44,0,11.14-4.03,11.14-8.93s-4.7-9.03-11.14-9.03c-5.11,0-9.15,2.61-10.54,6.24-1.4-3.58-5.44-6.24-10.61-6.24-6.35,0-11.05,4.04-11.05,9.03s4.61,8.93,11.05,8.93M374.71,358.72c0,1.45.1,5.4-.48,6.66l-32.59,46.79h7.89l34.96-38.03c4.01-3.7,6.18-8.25,6.18-13.31v-80.34h-15.95v78.23Z"/>
</svg>