<?xml version="1.0" encoding="UTF-8"?>
<svg id="Calque_1" data-name="Calque 1" xmlns="http://www.w3.org/2000/svg" viewBox="0 0 113.73 20.15">
  <defs>
    <style>
      .cls-1 {
        fill: #141428;
        fill-rule: evenodd;
      }
    </style>
  </defs>
  <path class="cls-1" d="M5.28,20.15h103.17c2.92,0,5.28-2.36,5.28-5.28V0H0v14.87c0,2.92,2.36,5.28,5.28,5.28ZM5.28,19.33h40.97c2.46,0,4.47-2,4.47-4.47V.81H.81v14.05c0,2.47,2,4.47,4.47,4.47ZM59.86,9.34c-.91,0-1.57-.19-1.95-.58-.19-.19-.31-.43-.32-.7h0s-.04-.8.49-1.36c.39-.42,1-.63,1.8-.63s1.34.21,1.73.63c.58.63.52,1.55.51,1.57,0,.36.29.65.65.65s.65-.29.65-.65c0-3.45-3.4-3.49-3.55-3.49h-.02c-3.46,0-3.56,2.94-3.56,3.28,0,.97.76,2.63,3.58,2.63.96,0,1.64.21,2.04.62.24.24.37.57.36.9,0,.18,0,.8-.47,1.28-.4.41-1.04.63-1.89.63h-.02c-.76,0-1.36-.22-1.75-.64-.35-.39-.54-.89-.52-1.42,0-.37-.29-.66-.66-.66s-.66.29-.66.66c-.03.87.29,1.71.9,2.33.67.68,1.61,1.06,2.67,1.06,2.75,0,3.73-1.74,3.73-3.23-.02-1.75-1.48-2.87-3.74-2.87ZM104.3,9.34c-.91,0-1.57-.19-1.95-.58-.2-.19-.31-.44-.33-.7h0s-.04-.8.49-1.36c.39-.42,1-.63,1.8-.63s1.34.21,1.73.63c.59.63.52,1.55.51,1.57.02.36.32.64.67.63.34,0,.62-.28.63-.63,0-3.45-3.4-3.49-3.55-3.49h-.02c-3.46,0-3.56,2.94-3.56,3.28,0,.97.76,2.63,3.58,2.63.95,0,1.64.21,2.04.62.24.24.37.57.36.9,0,.18,0,.8-.47,1.28-.4.41-1.04.63-1.89.63h-.02c-.77,0-1.36-.22-1.75-.64-.35-.39-.54-.89-.52-1.42,0-.37-.29-.66-.66-.66s-.66.29-.66.66c-.03.87.29,1.71.9,2.33.67.68,1.61,1.06,2.67,1.06,2.75,0,3.73-1.74,3.73-3.23-.02-1.75-1.48-2.87-3.74-2.87ZM68.51,4.76c-2.1,0-3.57,1.47-3.57,3.58v6.21c0,.37.28.67.65.69.37.02.67-.28.69-.64v-2.68h2.23c1.97-.03,3.55-1.66,3.52-3.63-.03-1.93-1.59-3.5-3.52-3.53ZM68.5,10.61h-2.21v-2.27c0-1.36.89-2.28,2.21-2.28s2.27,1.02,2.27,2.27-1.02,2.27-2.27,2.27ZM78.42,4.76c-2.94,0-5.32,2.38-5.32,5.33s2.38,5.33,5.32,5.33,5.32-2.38,5.32-5.33-2.38-5.32-5.32-5.33ZM78.42,14.13c-2.23,0-4.03-1.8-4.03-4.03s1.8-4.04,4.03-4.04,4.03,1.8,4.03,4.03-1.8,4.03-4.03,4.04ZM89.68,11.71c1.84-.73,2.75-2.82,2.02-4.67-.54-1.37-1.86-2.27-3.34-2.27-2.11,0-3.58,1.49-3.58,3.61v6.19c0,.37.31.67.67.67s.67-.3.67-.67v-2.59h2.12l1.76,2.89c.19.32.59.44.92.25.15-.09.27-.24.32-.41.05-.17.02-.36-.07-.51l-1.5-2.48ZM86.11,10.64v-2.28c0-1.37.9-2.3,2.23-2.3,1.26,0,2.28,1.02,2.28,2.29s-1.02,2.29-2.28,2.29h-2.23ZM99.98,5.64c0,.37-.3.67-.67.67h-2.31v8.24c0,.37-.3.67-.67.67s-.67-.3-.67-.67V6.3h-2.31c-.37,0-.67-.3-.67-.67s.3-.67.67-.67h5.95c.37,0,.67.29.67.67ZM6.44,7.04c.52-.69,1.88-2.11,4.22-2.11,2.51,0,5.22,1.99,5.22,5.21,0,2.54-2.1,5.27-5.22,5.27s-5.22-2.64-5.22-5.09V1.91c0-.28.22-.5.5-.5s.5.22.5.5v5.13ZM6.46,10.13c0,2.32,1.87,4.22,4.19,4.22,2.31,0,4.18-1.86,4.19-4.18.02-2.32-1.85-4.21-4.17-4.22-2.32-.02-4.2,1.85-4.22,4.18ZM20.99,9.64h4.9c-.16-1.28-.89-2.4-1.97-3.08-1.98-1.21-4.57-.58-5.78,1.41-1.21,1.99-.58,4.58,1.4,5.79,1.98,1.21,4.57.58,5.78-1.41,0,0,0,0,0,0,.16-.24.47-.29.71-.14.24.15.3.47.15.71-.95,1.54-2.63,2.49-4.44,2.49-2.88,0-5.22-2.35-5.22-5.23s2.34-5.23,5.22-5.23,5.22,2.34,5.22,5.23v.06c-.02.27-.25.46-.52.45h-5.44c-.28,0-.51-.23-.51-.51s.23-.52.51-.52ZM29.86,14.56c-.03.4-.45.84-1.01.84s-.97-.43-1-.84V5.81c.03-.41.44-.85,1-.85h0c.55,0,.97.45,1,.84v8.76ZM45.06,5.78v6.46s.11,2.06-1.91,2.89c-.43.19-.89.28-1.36.28-1.37,0-2.31-.89-2.6-1.34-.32-.49-3.01-4.75-3.82-6.02-.12-.19-.2-.32-.22-.35h0s-.4-.8-1.15-.76c-1.26.11-1.24,1.14-1.23,1.24,0,0,0,0,0,0v6.3c0,.5-.45.92-.98.92-.58,0-.97-.42-1.01-.8v-6.59s.05-2.04,1.97-2.84c1.97-.73,3.46.37,3.99,1.28l4.01,6.34s.58.95,1.68.43c.52-.25.64-.81.64-.99v-6.45c.02-.41.45-.85.99-.85s.96.44.99.84Z"/>
</svg>