<?xml version="1.0" encoding="UTF-8"?>
<svg id="Calque_1" xmlns="http://www.w3.org/2000/svg" xmlns:xlink="http://www.w3.org/1999/xlink" version="1.1" viewBox="0 0 136.2 105.2">
  <!-- Generator: Adobe Illustrator 29.5.1, SVG Export Plug-In . SVG Version: 2.1.0 Build 141)  -->
  <defs>
    <style>
      .st0 {
        fill: none;
      }

      .st1 {
        fill: #12100b;
      }

      .st2 {
        clip-path: url(#clippath);
      }
    </style>
    <clipPath id="clippath">
      <rect class="st0" x="-14" y="-15.3" width="164.2" height="136"/>
    </clipPath>
  </defs>
  <polygon class="st1" points="99.3 37 107.8 51.1 105.5 37 109.6 37 109.6 55.6 106.1 55.6 95.8 39.8 98.5 55.6 94.3 55.6 94.3 37 99.3 37"/>
  <polygon class="st1" points="50.6 37 54.7 47.2 57.5 37 62.5 37 56 47.9 56 55.6 51.7 55.6 51.7 48.1 44.9 37 50.6 37"/>
  <polygon class="st1" points="38.4 37 38.4 41.8 29.2 38.7 29.2 44.7 37.3 44.7 37.3 49.3 29.2 46.5 29.3 54.1 38.6 50.8 38.4 55.6 24.9 55.6 24.9 37 38.4 37"/>
  <g class="st2">
    <g>
      <path class="st1" d="M81.8,46.3c0,6.9-2.2,8.5-5,8.5s-5-1.8-5-8.5,2.2-8.5,5-8.5,5,1.8,5,8.5h0ZM76.9,36.7c-6.1,0-9.7,4.1-9.7,9.6s3.5,9.7,9.7,9.7,9.7-4.2,9.7-9.7-3.5-9.6-9.7-9.6"/>
      <path class="st1" d="M125.5,54.6h-2v-16.5h1.4c4.5,0,5.9,2.6,5.9,8.1s-.3,8.4-5.3,8.4M125.7,37h-6.7v18.7h6.9c7.6,0,9.7-5,9.7-9.3s-3.5-9.5-9.9-9.5"/>
      <path class="st1" d="M7.4,54.5h-2.4v-8h2.8c2.4,0,3.6,1.7,3.6,3.8s-1.7,4.1-4.1,4.1M5,38.1h2.5c2.8,0,3.5,2,3.5,3.6,0,3.4-2.6,3.6-3.7,3.6h-2.2v-7.3h-.1ZM11.7,46l-2-.2h0l1.7-.5c2.4-.7,4.2-1.8,4.2-4.4s-1.9-3.8-4.5-3.8H.7v18.6h10c2.4,0,5.5-1.4,5.5-5s-1.6-4.2-4.6-4.5"/>
      <path class="st1" d="M134.3,65.2c-.4-.3-1-.4-1.9-.4s-.9,0-1.1-.1c-.2,0-.2-.2-.2-.3s0-.2.2-.3c.4-.2,1-.2,1.8,0,.3.1.6.3.9.5h.2c0,.1.6-.9.6-.9h-.2c-.4-.4-.8-.6-1.2-.7s-.8-.2-1.2-.2c-.6,0-1.1.1-1.6.4-.4.3-.6.7-.6,1.2s.2.9.6,1.2c.4.2,1,.3,2,.3s.8,0,1,.2c.2,0,.3.2.3.5s0,.4-.3.5c-.2.2-.5.2-.9.2s-.7,0-1-.2c-.4-.1-.7-.3-1-.5h-.2c0-.1-.6.9-.6.9h.2c.4.4.8.6,1.4.7s.9.2,1.5.2,1.2-.2,1.7-.5c.4-.4.7-.8.7-1.5s-.2-1.1-.7-1.5"/>
      <polygon class="st1" points="118.4 63.8 120.4 63.8 120.4 68.4 121.7 68.4 121.7 63.8 123.8 63.8 123.8 62.7 118.4 62.7 118.4 63.8"/>
      <polygon class="st1" points="111 66 108.1 62.7 107.4 62.7 107.4 68.4 108.6 68.4 108.6 65.1 111.4 68.4 112.1 68.4 112.1 62.7 111 62.7 111 66"/>
      <polygon class="st1" points="96.9 66 99.4 66 99.4 64.8 96.9 64.8 96.9 63.9 100.8 63.9 100.8 62.7 95.7 62.7 95.7 68.4 101 68.4 101 67.3 96.9 67.3 96.9 66"/>
      <polygon class="st1" points="85.8 65.6 83.9 62.7 83 62.7 83 68.4 84.1 68.4 84.1 65.1 85.8 67.7 87.6 65.1 87.6 68.4 88.7 68.4 88.7 62.7 87.8 62.7 85.8 65.6"/>
      <path class="st1" d="M76,63.1c-.3-.3-.7-.4-1.4-.4h-3.7v5.7h1.1v-2.3h2.7c.5,0,.9-.1,1.2-.5.3-.3.5-.7.5-1.2s-.2-.9-.5-1.2M75.3,64.4c0,.2,0,.3-.1.3h0s-.3.1-.5.1h-2.6v-1h2.6c.2,0,.3,0,.4.1,0,0,.1.2.1.3"/>
      <path class="st1" d="M63.3,63.4c-.6-.5-1.4-.8-2.3-.8s-1.7.3-2.3.8c-.6.5-.9,1.2-.9,2.2s.3,1.6.9,2.2c.6.5,1.4.8,2.3.8s1.7-.3,2.3-.8c.6-.5.9-1.2.9-2.2s-.3-1.6-.9-2.2M62.5,66.9c-.4.3-.8.5-1.5.5s-1.1-.2-1.5-.5c-.4-.3-.5-.7-.5-1.2s.2-.9.5-1.2c.4-.3.8-.5,1.5-.5s1.1.2,1.5.5c.4.3.5.7.5,1.2s-.2.9-.5,1.2"/>
      <polygon class="st1" points="48.2 62.7 47.1 62.7 47.1 68.4 51.9 68.4 51.9 67.3 48.2 67.3 48.2 62.7"/>
      <polygon class="st1" points="36.6 66 39.1 66 39.1 64.8 36.6 64.8 36.6 63.9 40.4 63.9 40.4 62.7 35.3 62.7 35.3 68.4 40.6 68.4 40.6 67.3 36.6 67.3 36.6 66"/>
      <polygon class="st1" points="26.1 66.4 24.4 62.7 23.2 62.7 25.8 68.4 26.4 68.4 29.1 62.7 27.8 62.7 26.1 66.4"/>
      <polygon class="st1" points="13.2 66 15.7 66 15.7 64.8 13.2 64.8 13.2 63.9 17 63.9 17 62.7 12 62.7 12 68.4 17.2 68.4 17.2 67.3 13.2 67.3 13.2 66"/>
      <path class="st1" d="M3,62.6H.6v5.9h2.4c.8,0,1.6-.3,2.1-.8s.8-1.2.8-2.1-.3-1.6-.8-2.2c-.5-.5-1.2-.8-2.1-.8M4.8,65.5c0,.6-.2,1-.5,1.5-.3.3-.8.5-1.4.5h-1.5v-4h1.5c.6,0,1,.2,1.4.5s.5.8.5,1.5"/>
    </g>
  </g>
</svg>