<svg width="101" height="50" viewBox="0 0 101 50" fill="none" xmlns="http://www.w3.org/2000/svg">
<path fill-rule="evenodd" clip-rule="evenodd" d="M0.822754 24.9954C0.822754 11.2881 11.9372 0.173828 25.6445 0.173828C39.3519 0.173828 50.4663 11.2881 50.4663 24.9954C50.4663 38.7027 39.3519 49.8169 25.6445 49.8169C11.9372 49.8169 0.822754 38.7027 0.822754 24.9954ZM29.1248 11.6595H16.3678L14.4106 14.7621L27.1676 14.7559L29.1248 11.6595ZM13.3721 35.0524C13.6428 34.7817 13.7811 34.4419 13.7811 34.0455V32.9063C13.7811 32.5224 13.6428 32.1888 13.3659 31.9057C13.0889 31.6224 12.7491 31.4839 12.3651 31.4839H10.9365C10.6155 31.4839 10.4582 31.3077 10.4582 30.9553V30.3889C10.4582 30.2316 10.496 30.0994 10.5903 29.9924C10.6722 29.8854 10.7917 29.835 10.9365 29.835H12.0568C12.3211 29.835 12.4973 29.9673 12.5791 30.2252L12.7365 30.7728H13.7623V30.1686C13.7623 29.7659 13.6302 29.4386 13.3595 29.1679C13.0889 28.9036 12.7553 28.7715 12.3651 28.7715H10.7036C10.3134 28.7715 9.97361 28.9099 9.69036 29.1869C9.41971 29.4638 9.28131 29.7973 9.28131 30.1875V31.1567C9.28131 31.5532 9.41346 31.8931 9.69036 32.17C9.97361 32.4469 10.3134 32.5854 10.7036 32.5854H12.1323C12.447 32.5854 12.6043 32.7678 12.6043 33.1266V33.8566C12.6043 34.0077 12.5603 34.1461 12.4784 34.2468C12.3903 34.3538 12.2708 34.4041 12.1323 34.4041H10.9931C10.71 34.4041 10.5337 34.272 10.4645 34.0203L10.3134 33.4035H9.27496V34.0706C9.27496 34.4734 9.40711 34.8069 9.67776 35.0712C9.94216 35.3419 10.282 35.474 10.6784 35.474H12.3651C12.7553 35.474 13.0952 35.3293 13.3721 35.0524ZM19.2188 32.5979C19.4957 32.321 19.6341 31.9874 19.6341 31.591V30.1812C19.6341 29.7973 19.4957 29.4638 19.2188 29.1869C18.9356 28.9099 18.5958 28.7715 18.2056 28.7715H15.1721V35.474H16.3552V33.0133H18.2056C18.5958 33.0133 18.9356 32.8749 19.2188 32.5979ZM24.8893 35.0524C25.1788 34.7755 25.3109 34.4419 25.3109 34.0329V30.1875C25.3109 29.7973 25.1725 29.4574 24.8893 29.1869C24.6124 28.9099 24.2788 28.7715 23.8823 28.7715H22.2838C21.8872 28.7715 21.5474 28.9099 21.2705 29.1869C20.9936 29.4574 20.8488 29.7973 20.8488 30.1812V34.0329C20.8488 34.4419 20.9936 34.7755 21.2705 35.0524C21.5474 35.3356 21.8872 35.474 22.2838 35.474H23.8823C24.2788 35.474 24.6061 35.3293 24.8893 35.0524ZM9.44491 27.1792L25.6068 27.1729L31.7367 17.4369L33.9646 20.9613H32.0514L30.0878 24.0703H35.9219L37.8855 27.1729H41.6113L31.7367 11.5524L23.8068 24.0765H15.1343L17.1231 20.9675H22.5103L24.4739 17.8649H12.4532L10.4896 20.9675H13.3721L9.44491 27.1792ZM29.0682 32.8497L30.157 35.474H31.4157L30.2388 32.7049C30.4968 32.5916 30.7172 32.4154 30.8934 32.1762C31.0633 31.9308 31.1451 31.6539 31.1451 31.3518V30.1812C31.1451 29.7973 31.0067 29.4638 30.7297 29.1869C30.4591 28.9099 30.1192 28.7715 29.7228 28.7715H26.7585V35.474H27.9416V32.8497H29.0682ZM34.7828 29.854H36.5009H36.5072V28.7715H31.894V29.854H33.5996V35.474H34.7828V29.854ZM41.4602 35.0524C41.7371 34.7817 41.8756 34.4419 41.8756 34.0455V32.9063C41.8756 32.5224 41.7371 32.1888 41.4476 31.9057C41.1707 31.6224 40.8372 31.4839 40.447 31.4839H39.0183C38.7036 31.4839 38.54 31.3077 38.54 30.9553V30.3889C38.54 30.2316 38.5841 30.0994 38.6722 29.9924C38.754 29.8854 38.8736 29.835 39.0183 29.835H40.1449C40.4091 29.835 40.5855 29.9673 40.6672 30.2252L40.8246 30.7728H41.8568V30.1686C41.8568 29.7659 41.7245 29.4386 41.454 29.1679C41.1833 28.9036 40.8498 28.7715 40.4533 28.7715H38.7981C38.4015 28.7715 38.0617 28.9099 37.7911 29.1869C37.5142 29.4638 37.3694 29.7973 37.3694 30.1875V31.1567C37.3694 31.5532 37.5142 31.8931 37.7911 32.17C38.0617 32.4469 38.4015 32.5854 38.7981 32.5854H40.2267C40.5477 32.5854 40.705 32.7678 40.705 33.1266V33.8566C40.705 34.0077 40.661 34.1461 40.5791 34.2468C40.491 34.3538 40.3715 34.4041 40.2267 34.4041H39.0876C38.8043 34.4041 38.6345 34.272 38.5589 34.0203L38.4015 33.4035H37.3694V34.0706C37.3694 34.4734 37.5079 34.8069 37.7722 35.0712C38.0429 35.3419 38.3701 35.474 38.7729 35.474H40.447C40.8435 35.474 41.1771 35.3293 41.4602 35.0524ZM42.3477 29.0988H42.5994V28.9855H41.97V29.0988H42.2218V29.6336H42.3477V29.0988ZM43.3545 29.2372V29.64V29.6462H43.4742V28.9981H43.3735L43.1155 29.3883L42.8637 28.9981H42.7567V29.6462H42.8637V29.2435C42.8637 29.2347 42.8609 29.2246 42.858 29.2137C42.8547 29.2012 42.851 29.1877 42.851 29.1743C42.8574 29.1837 42.8637 29.1947 42.87 29.2058C42.8763 29.2168 42.8826 29.2278 42.8889 29.2372L43.1029 29.5581H43.1217L43.3295 29.2372C43.3412 29.2254 43.3456 29.2112 43.3503 29.1961C43.3532 29.1869 43.3562 29.1774 43.3609 29.1679C43.3546 29.1994 43.3545 29.2183 43.3545 29.2372ZM50.4792 3.27637L56.3825 13.4718L62.3237 3.27637H50.4792ZM82.6517 21.7603L75.6469 33.7873L74.5896 31.9622L87.504 9.80267H89.6249L83.7153 19.9415H91.1668L100.827 3.27637H86.4467C83.8223 3.27637 82.2803 5.71823 82.2803 5.71823C82.2803 5.71823 68.5289 29.3315 68.5164 29.3315C67.8115 30.7538 67.8115 33.0698 68.5289 34.404C68.5415 34.4292 75.6532 46.6952 75.6532 46.6952L90.1158 21.7477H82.6517V21.7603ZM72.9155 18.1416H63.2549L61.1655 21.7226L57.4397 15.2969L63.0158 5.73083C63.0158 5.73083 64.608 3.27637 67.3268 3.27637H81.5754L77.7931 9.76497H68.1261L67.0625 11.5901H76.7294L72.9155 18.1416ZM17.9667 29.854H16.3555V31.9371H17.9729C18.1114 31.9371 18.2247 31.8869 18.3128 31.7798C18.4009 31.6729 18.445 31.547 18.445 31.3834V30.4016C18.445 30.238 18.4009 30.1121 18.3128 30.0051C18.2247 29.9044 18.1052 29.854 17.9667 29.854ZM27.9419 29.854H29.4964C29.6286 29.854 29.7419 29.9044 29.83 30.0051C29.9181 30.1121 29.9558 30.2442 29.9558 30.4016V31.2323C29.9558 31.3896 29.9181 31.5217 29.83 31.6224C29.7481 31.7232 29.6348 31.7736 29.4964 31.7736H27.9419V29.854ZM23.6497 29.854H22.5106C22.3595 29.854 22.2462 29.9044 22.1581 30.0114C22.07 30.1183 22.0322 30.2442 22.0322 30.4078V33.8441C22.0322 34.0014 22.0763 34.1273 22.1581 34.2343C22.2462 34.3412 22.3595 34.3979 22.5106 34.3979H23.6497C23.7882 34.3979 23.9015 34.3412 23.9896 34.2343C24.0839 34.1273 24.128 34.0014 24.128 33.8441V30.4016C24.128 30.2442 24.0839 30.1121 23.9896 30.0051C23.9015 29.9044 23.7882 29.854 23.6497 29.854Z" fill="#141428"/>
</svg>
