<svg width="113" height="41" viewBox="0 0 113 41" fill="none" xmlns="http://www.w3.org/2000/svg">
<path d="M12.5689 40.8763C9.22472 40.7435 6.4887 39.8284 4.34936 38.1288C3.94108 37.8042 2.96818 36.8307 2.64179 36.4201C1.77426 35.3293 1.18445 34.2676 0.791053 33.0897C-0.419483 29.4638 0.203537 24.7059 2.57307 19.4841C4.60189 15.0136 7.73245 10.5797 13.1942 4.43886C13.9987 3.53525 16.3946 0.892578 16.4101 0.892578C16.4158 0.892578 16.2852 1.11876 16.1209 1.3942C14.7008 3.77289 13.4856 6.57475 12.8237 9.00041C11.7603 12.8926 11.8886 16.2327 13.1993 18.8227C14.1035 20.607 15.6536 22.1525 17.3967 23.0069C20.4482 24.502 24.9159 24.6257 30.3719 23.3688C30.7475 23.2818 49.3613 18.3405 71.7362 12.3881C94.1111 6.43503 112.421 1.56828 112.424 1.57228C112.43 1.57745 60.4406 23.824 33.452 35.3653C29.1779 37.1926 28.035 37.6541 26.0256 38.3596C20.8891 40.1634 16.2881 41.0241 12.5689 40.8763Z" fill="#141428"/>
</svg>
