<?xml version="1.0" encoding="UTF-8"?>
<svg id="Calque_1" data-name="Calque 1" xmlns="http://www.w3.org/2000/svg" viewBox="0 0 112.09 21.92">
  <defs>
    <style>
      .cls-1 {
        fill: #141428;
        fill-rule: evenodd;
      }
    </style>
  </defs>
  <path class="cls-1" d="M72.6,0h1.57c.28,0,.54.11.74.31.2.2.3.46.31.74l-.02,12.79c0,1.79-.59,3.52-1.68,4.94-1.09,1.41-2.62,2.43-4.35,2.88-1.73.45-3.56.32-5.2-.38-1.64-.7-3.01-1.92-3.89-3.48-.87-1.56-1.21-3.36-.95-5.13.26-1.77,1.1-3.4,2.39-4.64s2.95-2.02,4.72-2.21c1.78-.19,3.57.21,5.09,1.14l.21.13V1.04c.01-.14.04-.27.09-.4.05-.13.13-.24.23-.34.1-.1.21-.17.34-.23.13-.05.26-.08.4-.08ZM70.25,16.96c.83-.83,1.3-1.96,1.3-3.13,0-1.17-.47-2.3-1.3-3.13-.83-.83-1.96-1.3-3.13-1.3h-.07c-1.14.04-2.23.51-3.04,1.32s-1.28,1.9-1.32,3.04c0,.59.1,1.17.32,1.71.22.54.54,1.04.95,1.46.41.42.9.75,1.44.98.54.23,1.12.34,1.71.35,1.17,0,2.3-.47,3.13-1.3ZM111.6,6.19c.32-.48.49-1.04.49-1.62,0-.38-.07-.76-.22-1.11-.15-.35-.36-.67-.63-.95-.27-.27-.59-.48-.94-.63-.35-.15-.73-.22-1.12-.22-.58,0-1.14.17-1.62.49-.48.32-.85.77-1.07,1.31-.22.53-.28,1.12-.17,1.68.11.56.39,1.08.8,1.49.41.41.93.68,1.49.8.56.11,1.15.05,1.68-.17.53-.22.99-.59,1.31-1.07ZM78.79,7.11c1.33-.89,2.89-1.36,4.49-1.36,2.14,0,4.19.86,5.71,2.37,1.51,1.51,2.37,3.57,2.37,5.71,0,1.6-.47,3.16-1.36,4.49-.89,1.33-2.15,2.36-3.63,2.98-1.48.61-3.1.77-4.67.46-1.57-.31-3.01-1.08-4.14-2.21-1.13-1.13-1.9-2.57-2.21-4.14-.31-1.57-.15-3.19.46-4.67.61-1.48,1.65-2.74,2.98-3.63ZM86.96,16.29c.49-.73.75-1.58.75-2.46,0-1.17-.47-2.3-1.3-3.13s-1.95-1.3-3.13-1.3c-.88,0-1.73.26-2.46.75-.73.49-1.3,1.18-1.63,1.99-.34.81-.42,1.7-.25,2.56.17.86.59,1.65,1.21,2.27.62.62,1.41,1.04,2.27,1.21.86.17,1.75.08,2.56-.25.81-.33,1.5-.9,1.99-1.63ZM99.44,5.75c-1.6,0-3.16.47-4.49,1.36-1.33.89-2.36,2.15-2.98,3.63-.61,1.48-.77,3.1-.46,4.67.31,1.57,1.08,3.01,2.21,4.14,1.13,1.13,2.57,1.9,4.14,2.21,1.57.31,3.19.15,4.67-.46,1.48-.61,2.74-1.65,3.63-2.98.89-1.33,1.36-2.89,1.36-4.49,0-2.14-.86-4.2-2.37-5.71-1.51-1.51-3.57-2.37-5.71-2.37ZM103.87,13.83c0,.88-.26,1.73-.75,2.46-.49.73-1.18,1.29-1.99,1.63-.81.33-1.7.42-2.56.25-.86-.17-1.65-.59-2.27-1.21-.62-.62-1.04-1.41-1.21-2.27-.17-.86-.08-1.75.25-2.56.34-.81.9-1.5,1.63-1.99.73-.49,1.58-.75,2.46-.75,1.17,0,2.3.47,3.13,1.3.83.83,1.3,1.96,1.3,3.13ZM19.75,7.11c1.33-.89,2.89-1.36,4.49-1.36,2.14,0,4.19.86,5.71,2.37,1.47,1.47,2.32,3.45,2.37,5.52v-6.76c0-.25.1-.48.27-.65.17-.17.41-.27.65-.27h1.76c.24,0,.47.1.64.27s.27.4.27.64v.42c1.05-.87,2.34-1.41,3.7-1.55,1.13-.11,2.26.03,3.33.42,1.06.39,2.03,1,2.82,1.81,1.41-1.33,3.26-2.12,5.2-2.22,1.92-.07,3.8.54,5.31,1.72,1.51,1.19,2.55,2.87,2.93,4.75-.06.28-.1.56-.13.84-.07.79-.03,1.58.12,2.36h-12.03s.2.47.2.47c.31.59.74,1.1,1.27,1.49.53.39,1.14.66,1.79.79.39.07.79.11,1.19.11h.2c.84-.02,1.65-.25,2.38-.67l.38-.25c.12-.09.26-.15.41-.16.15,0,.3.03.42.1l2.15,1.19h0c.1.05.18.13.24.22.06.09.1.2.11.31.01.1,0,.21-.04.31-.04.1-.1.18-.17.25l-.57.51s-.04.03-.06.04h-.02c-1.49,1.17-3.33,1.79-5.21,1.77-.1,0-.18,0-.28,0-.25,0-.49,0-.74-.02l-.44-.03c-1.99-.22-3.83-1.17-5.15-2.66-1.33-1.5-2.05-3.44-2.03-5.44.03-1.51.47-2.96,1.27-4.22-.27.43-.51.89-.7,1.36l-.06-.06h0c-.47-.54-1.06-.96-1.73-1.22-.67-.26-1.39-.36-2.1-.29-1.07.08-2.08.57-2.8,1.37-.72.8-1.11,1.84-1.09,2.92l-.07,7.32c0,.25-.1.48-.27.65-.17.17-.41.27-.65.27h-1.77c-.24,0-.47-.1-.64-.27-.17-.17-.26-.4-.27-.64v-6.94c-.04,1.53-.51,3.02-1.36,4.29-.89,1.33-2.15,2.36-3.63,2.98-1.48.61-3.1.77-4.67.46-1.57-.31-3.01-1.08-4.14-2.21-1.13-1.13-1.9-2.57-2.21-4.14-.31-1.57-.15-3.19.46-4.67.61-1.48,1.65-2.74,2.98-3.63ZM27.92,16.29c.49-.73.75-1.58.75-2.46,0-1.17-.47-2.3-1.3-3.13-.83-.83-1.95-1.3-3.13-1.3-.88,0-1.73.26-2.46.74-.73.49-1.3,1.18-1.63,1.99-.34.81-.42,1.7-.25,2.56.17.86.59,1.65,1.21,2.27.62.62,1.41,1.04,2.27,1.21.86.17,1.75.08,2.56-.25.81-.33,1.5-.9,1.99-1.63ZM8.08,5.75c-1.6,0-3.16.47-4.49,1.36-1.33.89-2.36,2.15-2.98,3.63C0,12.21-.16,13.84.16,15.41c.31,1.57,1.08,3.01,2.21,4.14,1.13,1.13,2.57,1.9,4.14,2.21,1.57.31,3.19.15,4.67-.46,1.48-.61,2.74-1.65,3.63-2.98.89-1.33,1.36-2.89,1.36-4.49,0-2.14-.86-4.19-2.37-5.71-1.51-1.51-3.57-2.37-5.71-2.37ZM12.51,13.83c0,.88-.26,1.73-.75,2.46-.49.73-1.18,1.3-1.99,1.63-.81.33-1.7.42-2.56.25-.86-.17-1.65-.59-2.27-1.21-.62-.62-1.04-1.41-1.21-2.27-.17-.86-.08-1.75.25-2.56.34-.81.9-1.5,1.63-1.99.73-.49,1.59-.75,2.46-.75,1.17,0,2.3.47,3.13,1.3.83.83,1.3,1.96,1.3,3.13h0ZM53.72,10.14c-.72-.48-1.58-.74-2.45-.74-.87,0-1.72.25-2.45.73-.73.48-1.29,1.17-1.63,1.97h8.14c-.33-.8-.89-1.49-1.62-1.97Z"/>
</svg>