<svg width="106" height="41" viewBox="0 0 106 41" fill="none" xmlns="http://www.w3.org/2000/svg">
<path fill-rule="evenodd" clip-rule="evenodd" d="M30.6348 15.0228C33.8928 7.733 35.763 3.5392 36.5379 0.892578C36.892 0.990523 37.2153 1.05512 37.6027 1.05512C37.9568 1.05512 38.2794 0.990522 38.6346 0.892578C40.1823 5.31188 42.1171 9.82925 43.2785 12.5383C44.5055 15.3453 46.635 20.2168 48.087 23.3456C47.9376 23.3357 47.7274 23.3135 47.4817 23.2876C46.9289 23.2294 46.1961 23.1522 45.5696 23.1522C44.9959 23.1522 44.4211 23.2174 43.9295 23.2731C43.6481 23.305 43.394 23.3338 43.1828 23.3456L41.8269 19.7654L40.474 16.3448L40.3447 16.3389C39.0014 16.2774 37.6878 16.2172 36.3435 16.2172C35.0633 16.2172 33.7832 16.2803 32.504 16.3433L32.4733 16.3448C31.4422 18.8289 30.4076 21.5062 29.8921 23.3456C29.7972 23.3312 29.6923 23.3134 29.5808 23.2945C29.1998 23.2299 28.7415 23.1522 28.3427 23.1522C27.9648 23.1522 27.6327 23.214 27.3146 23.2732C27.1716 23.2998 27.0314 23.3259 26.8911 23.3456L30.6348 15.0228ZM66.5483 15.0228C69.8074 7.733 71.6797 3.5392 72.4525 0.892578C72.8076 0.990523 73.1308 1.05512 73.5183 1.05512C73.8724 1.05512 74.195 0.990522 74.5501 0.892578C76.0979 5.31188 78.0337 9.82925 79.1951 12.5383C80.421 15.3453 82.5506 20.2168 84.0025 23.3456C83.8537 23.3357 83.6439 23.3136 83.3986 23.2877C82.8456 23.2295 82.1116 23.1522 81.4861 23.1522C80.9117 23.1522 80.3365 23.2174 79.8447 23.2731C79.5634 23.305 79.3094 23.3338 79.0984 23.3456L77.7435 19.7654L76.3886 16.3448L76.2654 16.3391C74.922 16.2775 73.6063 16.2172 72.2601 16.2172C70.9778 16.2172 69.6958 16.2803 68.4157 16.3434L68.3878 16.3448C67.3556 18.8289 66.3253 21.5062 65.8086 23.3456C65.7119 23.331 65.605 23.3129 65.4914 23.2936C65.1111 23.2292 64.6563 23.1522 64.2593 23.1522C63.8809 23.1522 63.5478 23.2142 63.2293 23.2734C63.0868 23.3 62.9472 23.326 62.8077 23.3456L66.5483 15.0228ZM0.423828 12.7646C0.423828 4.57074 6.03719 0.958416 12.5521 0.958416C18.5847 0.958416 24.4889 4.2492 24.4889 11.99C24.4889 17.4414 21.6818 21.4425 17.199 23.0226L24.4889 27.5399C23.3922 28.0242 21.8754 28.8628 20.9078 29.5409L13.5212 23.7664C13.1683 23.7972 12.8173 23.7972 12.4666 23.7972H12.4564C9.64938 23.7972 6.32744 23.3784 3.52044 20.5391C0.811386 17.7967 0.423828 14.505 0.423828 12.7646ZM46.9152 2.41002C46.9152 2.02255 46.8516 1.60411 46.7537 1.21664C49.3024 1.37701 52.8835 1.40902 55.3676 1.40902C58.0454 1.40902 60.885 1.377 63.9815 1.21664C63.8847 1.7634 63.82 2.1836 63.82 2.44191C63.82 2.75349 63.8698 3.0147 63.9474 3.42218C63.9582 3.4792 63.9696 3.53908 63.9815 3.60237C62.0786 3.40971 59.7868 3.37706 57.561 3.37706C57.5287 4.53947 57.4972 5.76524 57.4972 6.99115V18.927C57.4972 21.2725 57.6148 22.3495 57.7107 23.2284C57.715 23.2678 57.7193 23.3068 57.7235 23.3456C56.7871 23.2498 55.7551 23.1522 55.3676 23.1522C54.9037 23.1522 54.4854 23.199 53.6629 23.2912C53.5141 23.3078 53.3521 23.326 53.1743 23.3456C53.2056 22.7552 53.2406 22.1628 53.2757 21.5695C53.3862 19.6998 53.4973 17.8199 53.4973 15.958L53.4644 6.95823C53.4644 5.85077 53.4373 4.79956 53.4076 3.64779C53.4052 3.55818 53.4029 3.46796 53.4006 3.37706H51.7864C51.4969 3.37706 48.4004 3.442 46.7537 3.60237C46.8516 3.21597 46.9152 2.79748 46.9152 2.41002ZM87.7349 10.0538C87.7349 5.82825 87.7346 5.37762 87.5096 1.21664C87.6035 1.22469 87.6989 1.23327 87.7974 1.24213C88.4758 1.30317 89.2978 1.37713 90.7348 1.37713C91.1674 1.37713 92.3705 1.33451 93.5367 1.29319C94.6335 1.25434 95.6978 1.21664 96.0577 1.21664C98.1543 1.21664 99.7351 1.47509 101.121 2.79786C102.09 3.7321 102.607 5.05483 102.607 6.40989C102.607 9.99183 99.929 11.8299 96.9939 12.3788L97.8961 13.6679C98.1405 14.0095 98.4422 14.4498 98.7434 14.8894C99.039 15.3209 99.3341 15.7517 99.5741 16.0876C102.124 19.6684 102.993 20.798 105.026 23.3456C104.951 23.3377 104.878 23.3298 104.805 23.322C103.988 23.2344 103.22 23.1522 102.154 23.1522C100.992 23.1522 100.573 23.208 99.751 23.3177C99.684 23.3266 99.6142 23.3359 99.5411 23.3456C99.2964 22.9706 98.9937 22.4794 98.6918 21.9894C98.3975 21.5118 98.1038 21.0353 97.8653 20.6687C96.2207 18.12 94.219 15.2802 92.4776 12.8284H91.7029V17.4096C91.7029 17.8905 91.7368 19.222 91.7698 20.5172C91.8011 21.7435 91.8315 22.9373 91.8315 23.3456C91.644 23.3271 91.4508 23.303 91.2514 23.2781C90.7653 23.2175 90.2417 23.1522 89.67 23.1522C88.9285 23.1522 88.1541 23.2498 87.4448 23.3456L87.4572 23.0389C87.7031 16.9654 87.7349 16.1797 87.7349 10.0538ZM20.0693 11.668C20.0693 6.99035 17.7793 2.6024 12.4893 2.6024C9.19797 2.6024 4.84242 4.79689 4.84242 12.9251C4.84242 16.4737 6.55314 22.1522 12.5202 22.1522C14.9085 22.1522 17.1005 20.9261 18.4233 18.8951C19.746 16.862 20.0693 14.3447 20.0693 11.668ZM96.9939 3.60237C96.121 2.95766 95.0574 2.79786 93.993 2.79786C93.5716 2.79786 92.8768 2.85884 92.3263 2.90715C92.0753 2.92918 91.8543 2.94858 91.7029 2.95835V11.3141C91.8703 11.3223 92.0499 11.3333 92.2396 11.3448C92.7436 11.3756 93.3192 11.4108 93.9292 11.4108C97.1549 11.4108 98.3478 9.05487 98.3478 6.95823C98.3478 5.60209 98.1219 4.44188 96.9939 3.60237ZM39.5378 14.3459L36.5061 6.4099L33.215 14.3459C33.6691 14.3589 34.1181 14.3824 34.5661 14.4059C35.2311 14.4407 35.8939 14.4755 36.5678 14.4755C37.5617 14.4755 38.5212 14.4126 39.5134 14.3475L39.5378 14.3459ZM75.4534 14.3459L72.4206 6.4099L69.1295 14.3459C69.5847 14.3589 70.0342 14.3824 70.4827 14.4059C71.1478 14.4408 71.8104 14.4755 72.4854 14.4755C73.4793 14.4755 74.4419 14.4123 75.4355 14.347L75.4534 14.3459ZM27.1052 35.4377C29.0606 31.0555 30.1892 28.5262 30.656 26.9266C30.8726 26.9857 31.0709 27.0264 31.3072 27.0264C31.5218 27.0264 31.7192 26.9857 31.9358 26.9266C32.8789 29.622 34.0593 32.3754 34.7681 34.0253C35.5143 35.7363 36.8142 38.7081 37.7002 40.6159C37.6101 40.6099 37.4833 40.5967 37.3349 40.5813C36.9972 40.5461 36.5476 40.4993 36.1645 40.4993C35.8148 40.4993 35.4644 40.5386 35.1644 40.5722C34.9933 40.5914 34.8385 40.6088 34.7098 40.6159L33.8817 38.4347L33.0593 36.3495C32.2107 36.3082 31.3841 36.2705 30.5375 36.2705C29.7519 36.2705 28.9632 36.3082 28.1756 36.3495C27.5475 37.8617 26.9172 39.4956 26.6042 40.6159C26.552 40.6078 26.4947 40.5981 26.4338 40.5879C26.1983 40.548 25.9097 40.4993 25.6595 40.4993C25.4259 40.4993 25.2193 40.5373 25.0222 40.5737C24.9385 40.5891 24.8565 40.6042 24.7749 40.6159L27.0577 35.5441L27.1052 35.4377ZM75.8042 35.5016C77.7791 31.0801 78.9164 28.534 79.3854 26.9266C79.602 26.9857 79.8004 27.0264 80.0347 27.0264C80.2513 27.0264 80.4486 26.9857 80.6652 26.9266C81.6083 29.622 82.7868 32.3754 83.4956 34.0253C84.2438 35.7363 85.5437 38.7081 86.4277 40.6159C86.3386 40.61 86.2131 40.5969 86.0661 40.5815C85.7287 40.5463 85.2779 40.4993 84.8939 40.4993C84.5448 40.4993 84.195 40.5384 83.8949 40.572C83.7229 40.5913 83.5671 40.6088 83.4373 40.6159L82.6111 38.4347L81.7849 36.3495C80.9383 36.3082 80.1135 36.2705 79.2669 36.2705C78.4813 36.2705 77.6944 36.3082 76.9088 36.3495C76.2807 37.8617 75.6485 39.4956 75.3355 40.6159C75.28 40.6075 75.2192 40.5972 75.1548 40.5864C74.9196 40.5469 74.6362 40.4993 74.3889 40.4993C74.1561 40.4993 73.9536 40.5366 73.7585 40.5726C73.673 40.5884 73.5889 40.6039 73.5043 40.6159L75.7853 35.5441L75.8042 35.5016ZM97.3731 30.8975C97.3731 29.1688 98.3958 26.9661 101.958 26.9661C103.393 26.9661 104.258 27.3404 105.223 27.7716C104.829 28.7364 104.79 28.8942 104.613 29.6404H104.338C104.045 28.5201 102.998 27.9278 101.76 27.9278C100.207 27.9278 99.4395 28.8929 99.4395 30.0525C99.4395 31.4879 100.445 31.8823 102.174 32.5518C102.228 32.5729 102.281 32.5936 102.333 32.6139C103.73 33.1584 104.3 33.3802 104.85 33.9877C105.675 34.8717 105.812 36.0335 105.812 36.5848C105.812 38.5931 104.416 40.8926 100.815 40.8926C99.1471 40.8926 97.8788 40.2582 97.1648 39.9011L97.1379 39.8876C97.4646 38.8903 97.4919 38.6227 97.5828 37.7336L97.5896 37.6669H97.8662C98.7699 39.6338 99.7533 39.929 100.915 39.929C102.466 39.929 103.493 38.885 103.493 37.4674C103.493 35.912 102.253 35.3627 101.879 35.2072C101.596 35.0849 101.215 34.9326 100.835 34.7815C100.476 34.6383 100.119 34.496 99.8517 34.381C97.9458 33.5364 97.3731 32.5317 97.3731 30.8975ZM39.4241 31.6672C39.4241 30.4268 39.4233 29.0282 39.2264 27.1223C39.5986 27.1637 40.3295 27.2428 40.6229 27.2428C41.0576 27.2428 41.5478 27.1815 42.02 27.1225L42.0211 27.1223C41.8047 28.5783 41.8047 31.9754 41.8047 33.9646V33.9689C41.8047 36.8986 41.8429 39.0231 42.0005 40.6159C41.7969 40.608 41.5894 40.5836 41.3816 40.5591C41.1271 40.5292 40.8721 40.4992 40.6229 40.4992C40.3831 40.4992 40.107 40.5298 39.8343 40.56C39.6165 40.5842 39.4008 40.608 39.2076 40.6159C39.4241 38.2785 39.4241 35.0347 39.4241 31.6743V31.6672ZM45.4764 32.4921C45.4764 29.9335 45.4764 29.6536 45.3409 27.1223C45.3791 27.1258 45.4178 27.1294 45.4571 27.1331C45.8821 27.1728 46.3885 27.2202 47.3076 27.2202C47.5701 27.2202 48.3028 27.1943 49.0137 27.1691C49.6836 27.1454 50.3342 27.1223 50.5539 27.1223C51.8317 27.1223 52.7976 27.2806 53.6422 28.0859C54.2309 28.6569 54.5456 29.4627 54.5456 30.2896C54.5456 32.4712 52.914 33.5946 51.1223 33.9293L51.6737 34.716C51.8253 34.9272 52.0132 35.2014 52.2001 35.4742C52.3774 35.7329 52.5537 35.9902 52.6975 36.1914C54.249 38.375 54.7826 39.0644 56.021 40.6159C55.9695 40.6106 55.9185 40.6052 55.8678 40.5998C55.3775 40.5482 54.9133 40.4992 54.2727 40.4992C53.548 40.4992 53.2958 40.533 52.7732 40.603C52.7421 40.6072 52.71 40.6115 52.6768 40.6159C52.5291 40.3905 52.347 40.0953 52.1649 39.8001C51.9828 39.5049 51.8007 39.2097 51.653 38.9843C50.6489 37.4288 49.4322 35.6985 48.369 34.2041H47.8966V36.9969C47.8966 37.2905 47.9175 38.104 47.9378 38.8945C47.957 39.6416 47.9756 40.3682 47.9756 40.6159C47.8649 40.6049 47.7513 40.5908 47.6341 40.5763C47.3344 40.5392 47.0117 40.4992 46.6564 40.4992C46.2075 40.4992 45.7346 40.5588 45.3014 40.6159L45.3075 40.4646C45.4574 36.7291 45.4764 36.2563 45.4764 32.5122V32.4921ZM57.6715 32.6289C57.1379 31.1326 56.4519 29.2468 55.6446 27.1223C55.6852 27.1266 55.7288 27.1312 55.7748 27.1361C56.1744 27.1788 56.7565 27.2409 57.1803 27.2409C57.6331 27.2409 58.0638 27.2011 58.556 27.1223C59.1663 29.4436 60.4462 33.2798 61.3676 36.0145L61.7421 37.1155L62.2333 35.8376C62.4302 35.306 64.5164 29.5224 65.1071 27.1223C65.1749 27.1334 65.2432 27.147 65.3135 27.161C65.5062 27.1994 65.7141 27.2409 65.9709 27.2409C66.308 27.2409 66.5018 27.1973 66.7223 27.1477C66.7593 27.1393 66.7972 27.1308 66.8366 27.1223C66.8423 27.1357 66.973 27.5594 67.1576 28.1578C67.5416 29.4025 68.159 31.4035 68.3704 32.0417C68.9413 33.7704 69.5526 35.4825 70.1827 37.1738C70.7517 35.6775 70.8701 35.3626 71.7955 32.6101C72.3665 30.9208 72.7184 29.6799 73.4272 27.1223C73.6437 27.1814 73.9564 27.2409 74.3305 27.2409C74.6278 27.2409 74.9197 27.2011 75.215 27.1223C74.0357 30.0737 73.3677 31.8234 72.2848 34.8929C71.1842 38.0412 71.1059 38.2769 70.3577 40.6159C70.2962 40.604 70.2381 40.592 70.1822 40.5805C69.9699 40.5366 69.7893 40.4992 69.5711 40.4992C69.3719 40.4992 69.1399 40.5428 68.9552 40.5774C68.8641 40.5945 68.7846 40.6094 68.7261 40.6159C67.9976 38.2355 67.9194 37.9807 67.6044 37.0967C67.4869 36.7637 67.1795 35.8519 66.8735 34.9443C66.5644 34.0272 66.2566 33.1145 66.1478 32.8077C66.0358 32.4801 65.8805 32.0502 65.7267 31.6248C65.5856 31.2345 65.4459 30.848 65.3423 30.5475L64.7533 32.1791C63.8774 34.6144 63.6903 35.1644 63.1498 36.7534C63.0707 36.9861 62.9839 37.2411 62.8864 37.5276C62.6749 38.1425 62.4071 39.0197 62.1523 39.8544C62.0725 40.1155 61.9941 40.3724 61.919 40.6159C61.5863 40.5372 61.3885 40.4992 61.1719 40.4992C60.9534 40.4992 60.6402 40.5588 60.3645 40.6159L59.8752 39.1198C59.1664 36.9599 58.5772 35.1865 57.6715 32.6289ZM85.7266 29.2907C85.2467 28.4989 84.7893 27.7443 84.4178 27.1223C85.1443 27.2011 85.5975 27.2428 86.0306 27.2428C86.5012 27.2428 87.0725 27.2208 87.6416 27.1223C88.6654 29.2881 89.4139 30.8416 91.0855 33.7713C92.7552 30.8987 93.0706 30.2312 94.4862 27.1223C94.8012 27.1814 95.1953 27.2428 95.6304 27.2428C96.0223 27.2428 96.2381 27.2011 96.4566 27.1223C96.2207 27.5442 95.2676 29.067 94.7375 29.9139C94.5996 30.1342 94.4903 30.3088 94.4298 30.4063C93.8804 31.2841 93.3766 32.1852 92.876 33.0808C92.5692 33.6296 92.2636 34.1762 91.9493 34.7141C91.8115 34.9524 91.6934 35.1694 91.6934 35.3446V36.071C91.6934 37.4903 91.7379 38.4737 91.8015 39.8801C91.8121 40.1125 91.8231 40.3565 91.8345 40.6159C91.6858 40.603 91.5369 40.586 91.3879 40.5689C91.0831 40.5341 90.778 40.4993 90.4739 40.4993C90.1703 40.4993 89.7709 40.5457 89.4333 40.5849C89.3352 40.5963 89.2422 40.6071 89.1584 40.6159C89.2155 39.0822 89.2751 36.507 89.2751 35.2862L88.1139 33.2782C87.4761 32.1767 86.5669 30.6768 85.7266 29.2907ZM51.1223 28.579C50.5946 28.1852 49.9427 28.0859 49.2949 28.0859C49.0237 28.0859 48.566 28.1269 48.2222 28.1578C48.0918 28.1695 47.9778 28.1797 47.8966 28.1856V33.2782C47.9964 33.2834 48.1033 33.2903 48.216 33.2976C48.5258 33.3175 48.8801 33.3403 49.2554 33.3403C51.2223 33.3403 51.9484 31.9005 51.9484 30.6246C51.9484 29.7977 51.8114 29.0889 51.1223 28.579ZM32.4853 35.1282L30.6372 30.2897L28.6311 35.1282C28.9087 35.1361 29.1829 35.1505 29.4564 35.1648C29.8616 35.186 30.2653 35.2072 30.6767 35.2072C31.2871 35.2072 31.8769 35.1695 32.4853 35.1282ZM81.2166 35.1282L79.3647 30.2897L77.3605 35.1282C77.6371 35.1361 77.9108 35.1504 78.184 35.1647C78.5895 35.186 78.9937 35.2072 79.4043 35.2072C80.0166 35.2072 80.6062 35.1695 81.2166 35.1282Z" fill="#141428"/>
</svg>
