<svg width="100" height="28" viewBox="0 0 100 28" fill="none" xmlns="http://www.w3.org/2000/svg">
<path fill-rule="evenodd" clip-rule="evenodd" d="M14.3822 11.9829C14.937 11.9829 15.4502 11.7625 15.83 11.3672L23.7771 3.42661C22.7608 2.48686 21.6046 1.69618 20.3369 1.08567C19.7507 1.67451 19.0248 2.43281 18.3285 3.16021L18.3285 3.16026C17.6468 3.87233 16.9935 4.55478 16.5274 5.01965V2.74221C16.5274 1.59248 15.5552 0.666992 14.3887 0.666992C13.2221 0.666992 12.3705 1.57693 12.3575 2.7137V5.01965C11.2765 3.94768 9.51363 2.18096 8.42741 1.08567C7.16232 1.69618 6.00351 2.48686 4.9834 3.42661L12.933 11.3762C13.3193 11.7625 13.8326 11.9829 14.3822 11.9829ZM12.7688 13.5645C12.7688 13.0149 12.5575 12.5457 12.1686 12.1685L4.20734 4.2046C3.28833 5.20786 2.5145 6.34204 1.91954 7.58381C2.79548 8.46044 3.67252 9.33707 4.4092 10.0734L4.41245 10.0767L4.41312 10.0773C5.06787 10.7318 5.61142 11.2751 5.94425 11.6085H0.69981C0.610372 12.2476 0.542969 12.8995 0.542969 13.5645C0.542969 14.3124 0.622038 15.0499 0.7374 15.7667H5.94425C5.67005 16.0415 5.21211 16.468 4.65984 16.9823L4.65982 16.9823L4.65975 16.9824L4.65966 16.9824C3.85963 17.7275 2.86168 18.6569 1.93768 19.5763C2.54042 20.8168 3.31036 21.9548 4.23585 22.9516L12.1686 15.0136C12.5523 14.639 12.7688 14.1011 12.7688 13.5645ZM28.0214 15.7672C28.1433 15.0491 28.2211 14.3129 28.2211 13.565C28.2211 12.9 28.1537 12.248 28.0629 11.6077H22.8263C23.1866 11.2513 23.7917 10.6441 24.5168 9.91655L24.5174 9.91601C25.2189 9.2121 26.0326 8.39554 26.8458 7.58429C26.2508 6.34253 25.4744 5.20057 24.558 4.20509L16.6006 12.169C16.2182 12.5462 16.0095 13.0154 16.0095 13.565C16.0095 14.1016 16.2182 14.6395 16.6019 15.0128L24.5321 22.9521C25.455 21.9579 26.2288 20.8172 26.8276 19.5768C25.8878 18.6447 24.8752 17.6981 24.0702 16.9456L24.0702 16.9456C23.5374 16.4476 23.0957 16.0346 22.8263 15.7672H28.0214ZM12.9563 15.8027C13.3361 15.419 13.8429 15.2103 14.3821 15.2103C14.924 15.2103 15.4191 15.419 15.795 15.8079L23.733 23.7303C22.7323 24.6506 21.602 25.4309 20.3551 26.0259C19.4714 25.1378 18.5746 24.179 17.8423 23.396L17.8422 23.3959C17.293 22.8087 16.8362 22.3204 16.5468 22.0349V27.2145C15.843 27.3221 15.1236 27.3998 14.3821 27.3998C13.7029 27.3998 13.0406 27.3363 12.3912 27.2378V22.0349C12.002 22.4261 11.319 23.1086 10.5057 23.9211L10.5029 23.9239L10.5025 23.9243C9.85639 24.5698 9.12827 25.2972 8.40016 26.0259C7.1584 25.4296 6.02163 24.6506 5.03003 23.7303L12.9563 15.8027ZM57.2108 12.786C57.2108 6.39309 52.8997 1.69953 46.2073 1.69953C39.1288 1.69953 35.0444 6.42031 35.0444 13.088C35.0444 20.1406 39.3919 24.5011 46.1127 24.5011C49.0396 24.5011 50.4239 23.9074 51.9988 23.0039L54.7377 25.4291L57.3741 22.9184L54.7701 20.6176C56.2166 19.0959 57.2108 16.4037 57.2108 12.786ZM48.7181 20.0214C48.0467 20.3791 47.011 20.5878 46.0803 20.5878C42.5417 20.5878 40.0322 18.0836 40.0322 13.088C40.0322 8.18444 42.4147 5.66851 46.1412 5.66851C50.3267 5.66851 52.223 8.53312 52.223 13.1411C52.1297 15.4769 51.7745 16.3726 51.2288 17.5106L48.9449 15.4432L46.3694 17.9241L48.7181 20.0214ZM64.6831 2.38451L73.6904 17.1807V2.38451H78.3269V23.9067H73.3741L64.1672 8.8422V23.9067H59.5073V2.38451H64.6831ZM99.0442 8.00485C99.0442 4.41955 96.5723 2.38451 91.1282 2.38451H80.5396V23.9067H91.0984C97.9813 23.9067 99.7493 20.5262 99.7493 17.3855C99.7493 14.6959 98.2703 13.0225 96.2418 12.3653C98.5555 11.2039 99.0442 9.76769 99.0442 8.00485ZM90.9662 10.8072H85.2746V6.23294H90.2922C93.346 6.23294 94.2482 6.99122 94.2482 8.48444C94.2482 10.071 93.2825 10.8072 90.9662 10.8072ZM90.869 20.0479H85.2746V14.4859H90.9973C93.5729 14.4859 94.7019 15.3867 94.7019 17.0588C94.7019 19.2416 93.4497 20.0479 90.869 20.0479Z" fill="#141428"/>
</svg>
