<svg width="114" height="41" viewBox="0 0 114 41" fill="none" xmlns="http://www.w3.org/2000/svg">
<path d="M51.213 24.8502C51.213 25.7824 51.4794 26.5372 52.0565 27.0255C52.6337 27.5139 53.2996 27.7802 54.0543 27.7802C54.809 27.7802 55.475 27.5139 56.0521 26.9811C56.6292 26.4484 56.8956 25.7381 56.8956 24.8502V8.77912C56.8956 7.89122 56.5849 7.18089 56.0077 6.64815C55.4306 6.11541 54.7646 5.89344 54.0543 5.89344C53.2996 5.89344 52.6337 6.15981 52.0565 6.64815C51.4794 7.18089 51.213 7.89122 51.213 8.77912V24.8502ZM54.0543 0.12207C55.1198 0.12207 56.1853 0.344046 57.1176 0.743602C58.0499 1.14316 58.9378 1.72029 59.7369 2.51941C60.4916 3.27412 61.1132 4.07324 61.5127 4.96114C61.9567 6.07102 62.1342 7.31408 62.1342 8.77912V24.8502C62.1342 27.2919 61.4239 29.3341 59.9589 30.9767C59.3817 31.5982 58.7158 32.0866 58.0055 32.4861C56.8512 33.0632 55.475 33.2852 53.9211 33.1964C52.8113 33.1076 51.879 32.5749 51.213 31.5982V40.0333H45.93V8.33517C45.93 6.11541 46.7291 4.16203 48.3717 2.5638C49.1265 1.80908 49.97 1.23195 50.8579 0.832392C51.8346 0.388441 52.9001 0.12207 54.0543 0.12207ZM43.0443 32.6637H37.7613V8.86791H43.0443V32.6637ZM32.6115 2.74138C34.2541 4.33961 35.0532 6.2042 35.0532 8.42396V32.6637H29.7702V8.77912C29.7702 7.98001 29.5038 7.26968 28.9267 6.69255C28.3496 6.11541 27.6836 5.84904 26.9289 5.84904C26.1298 5.84904 25.4639 6.11541 24.9311 6.69255C24.354 7.26968 24.0876 7.98001 24.0876 8.82351V32.7081H18.8046V8.55714C18.8046 6.33739 19.6037 4.384 21.2463 2.78578C22.889 1.18755 24.7979 0.388441 26.9289 0.388441C29.1043 0.344046 30.9689 1.14316 32.6115 2.74138ZM69.9034 8.69033C69.9034 7.84682 70.1698 7.1365 70.7469 6.55936C71.324 5.98223 71.99 5.71586 72.8335 5.71586C73.5882 5.71586 74.2985 5.98223 74.8756 6.55936C75.4528 7.1365 75.7635 7.84682 75.7635 8.69033V11.7092H69.9478V8.69033H69.9034ZM80.9578 16.6814V8.29077C80.9578 6.11541 80.1143 4.20642 78.4716 2.6082C76.829 1.00997 74.92 0.210861 72.7447 0.210861C70.3917 0.210861 68.4383 0.965578 66.9289 2.51941C65.4195 4.07324 64.6648 6.02662 64.6648 8.37956V24.7614C64.6648 27.1143 65.4195 29.0677 66.9733 30.6215C68.4827 32.1753 70.4361 32.9301 72.7447 32.9301C75.0088 32.9301 76.8734 32.2197 78.3829 30.7547C79.8035 29.4228 80.647 27.6914 80.8246 25.6049H80.869V20.4994H75.5416V25.2941C75.1864 26.8035 74.2541 27.5139 72.7003 27.5139C71.9012 27.5139 71.2352 27.2475 70.7025 26.6704C70.1254 26.0932 69.859 25.3829 69.859 24.5394V16.6814H80.9578ZM13.9655 14.1953C12.3673 12.7303 10.4583 11.9312 8.19417 11.798C7.35066 11.7092 6.64034 11.3984 6.15199 10.8213C5.61925 10.2442 5.39728 9.57823 5.39728 8.82351C5.39728 8.0688 5.66365 7.35847 6.15199 6.73694C6.64034 6.11541 7.35066 5.84904 8.23856 5.84904C9.83679 5.84904 10.7691 6.60376 11.0799 8.11319H16.3629C16.3629 5.89344 15.5194 4.02884 13.8767 2.5638C12.2341 1.09876 10.3251 0.388441 8.23856 0.388441C6.01881 0.388441 4.10982 1.18755 2.55599 2.83017C0.91337 4.47279 0.114258 6.47057 0.114258 8.82351C0.114258 11.1765 0.868975 13.1742 2.4228 14.7725C3.97663 16.3707 5.88562 17.2142 8.14977 17.2586C9.08207 17.2586 9.79239 17.4806 10.3251 17.9245C10.8135 18.3685 11.0799 19.0344 11.0799 19.9223V24.6282C11.0799 25.4273 10.8579 26.1376 10.4139 26.7591C9.96997 27.3807 9.21526 27.647 8.19417 27.647C6.77353 27.647 5.88562 26.9367 5.48607 25.5605V20.5882H0.114258V25.4717C0.336233 27.5139 1.22414 29.3341 2.77797 30.7991C4.33179 32.3085 6.15199 33.1076 8.14977 33.1076C10.5915 33.1076 12.5893 32.3529 14.0987 30.7991C15.6082 29.2897 16.3629 27.3363 16.3629 25.0277V19.8779C16.3629 17.5694 15.5638 15.6604 13.9655 14.1953ZM97.0732 14.1065C95.475 12.6415 93.566 11.8424 91.3018 11.7092C90.4583 11.6204 89.748 11.3096 89.2597 10.7325C88.7269 10.1554 88.5049 9.48944 88.5049 8.73472C88.5049 7.98001 88.7713 7.26968 89.2597 6.64815C89.748 6.02662 90.4583 5.76025 91.3462 5.76025C92.9445 5.76025 93.8767 6.51497 94.1875 8.0244H99.4705C99.4705 5.80465 98.627 3.94005 96.9844 2.47501C95.3418 1.00997 93.4328 0.299651 91.3462 0.299651C89.1265 0.299651 87.2175 1.09876 85.6193 2.74138C84.0654 4.384 83.2663 6.38178 83.2663 8.73472C83.2663 11.0877 84.021 13.0854 85.5749 14.6837C87.1287 16.2819 89.0377 17.1254 91.3018 17.1698C92.2341 17.1698 92.9888 17.3918 93.4772 17.7913C93.9655 18.2353 94.2319 18.9012 94.2319 19.7891V24.495C94.2319 25.2941 94.0099 26.0044 93.566 26.626C93.122 27.2475 92.3673 27.5139 91.3462 27.5139C89.9256 27.5139 88.9933 26.8035 88.6381 25.3829V20.4994H83.3107V25.3829H83.3551C83.5771 27.4251 84.465 29.2453 86.0188 30.7103C87.5726 32.2197 89.3928 33.0189 91.3906 33.0189C93.8324 33.0189 95.8301 32.2641 97.2952 30.7103C98.8046 29.2009 99.5593 27.2475 99.5593 24.9389V19.7891C99.4705 17.4362 98.6714 15.5716 97.0732 14.1065Z" fill="#141428"/>
<path d="M113.366 9.62255C113.366 10.91 112.301 11.9311 111.058 11.9311H103.777C102.489 11.9311 101.468 10.8656 101.468 9.62255V2.34175C101.468 1.05429 102.534 0.0332031 103.777 0.0332031H111.058C112.345 0.0332031 113.366 1.09869 113.366 2.34175V9.62255ZM42.1564 0.255179C42.7335 0.255179 43.2219 0.743525 43.2219 1.32066V4.33953C43.2219 4.91667 42.7335 5.40501 42.1564 5.40501H38.8711C38.294 5.40501 37.8057 4.91667 37.8057 4.33953V1.32066C37.8057 0.743525 38.294 0.255179 38.8711 0.255179H42.1564Z" fill="#141428"/>
</svg>
