<svg width="112" height="40" viewBox="0 0 112 40" fill="none" xmlns="http://www.w3.org/2000/svg">
<path fill-rule="evenodd" clip-rule="evenodd" d="M55.5965 1.21012C58.1955 0.136141 61.1346 0.852127 63.5654 2.04066C63.3403 2.4935 63.112 2.94416 62.8839 3.39456C62.5276 4.09779 62.1717 4.80037 61.8291 5.5096C60.7551 4.79362 59.4842 4.07763 58.1633 4.49648C57.322 4.70411 56.7492 5.68859 57.2074 6.48691C57.7506 7.04043 58.4956 7.25196 59.2345 7.46175C59.5183 7.54233 59.8012 7.62265 60.0714 7.72198C61.5964 8.14799 63.1823 8.94273 63.8732 10.457C64.9257 13.1706 63.7873 16.7255 61.0093 17.8961C57.9664 19.1061 54.4115 18.4402 51.7731 16.5894C52.3096 15.5414 52.8597 14.4989 53.4043 13.4665L53.4046 13.466L53.405 13.4652L53.4054 13.4645L53.4057 13.464L53.4058 13.4637L53.4061 13.4632L53.6454 13.0095C54.9986 14.1658 56.8673 15.1575 58.6573 14.5202C59.674 14.1622 60.032 12.6372 59.0833 12.0143C58.3703 11.5892 57.5405 11.3422 56.7109 11.0954C55.2911 10.6729 53.8719 10.2507 53.0404 8.93557C51.6621 6.25421 52.6931 2.37001 55.5965 1.21012ZM23.1838 1.06353H27.9952C29.3436 4.50263 30.6885 7.94293 32.0298 11.3844C33.3973 7.94531 34.7565 4.50502 36.1073 1.06353H40.8972C38.5106 6.73889 36.1144 12.4142 33.7087 18.0896H30.272C27.9093 12.4166 25.5465 6.74127 23.1838 1.06353ZM48.0639 1.06353H43.6463C43.6463 6.73889 43.6391 12.4154 43.6248 18.0932H48.0639V1.06353ZM67.9359 1.06353H72.332V18.0896H67.9359V1.06353ZM87.361 1.06353H75.7728C75.7692 2.32366 75.7692 3.56947 75.7871 4.84392H79.367V18.0896H83.7811V4.84392H87.361V1.06353ZM0.0393876 22.3283C0.968174 22.3364 1.89799 22.3317 2.82805 22.327H2.82809H2.82812H2.82815H2.82819H2.82822H2.82826H2.82829C4.35376 22.3193 5.8799 22.3116 7.40328 22.3605C8.13543 22.3602 8.85876 22.5203 9.5224 22.8295C10.186 23.1388 10.7739 23.5897 11.2445 24.1505C12.6765 26.0013 12.8555 28.8044 11.4915 30.7554C10.8651 31.6719 9.80182 32.1086 8.7887 32.4416C10.5405 34.7375 12.2863 37.0358 14.0261 39.3365H8.54885C7.16939 37.1885 5.78634 35.0406 4.39972 32.8926V39.3365H0.0393876C0.037001 33.6707 0.037001 28.0013 0.0393876 22.3283ZM4.39257 25.765V29.9714C4.49299 29.9676 4.59452 29.9647 4.69676 29.9617L4.69689 29.9617L4.69704 29.9617L4.69717 29.9617L4.69728 29.9617L4.6974 29.9617L4.69751 29.9616L4.69762 29.9616C5.56463 29.9362 6.48212 29.9093 7.19922 29.3843C7.41627 29.1931 7.59011 28.958 7.7092 28.6944C7.82829 28.4308 7.88988 28.1449 7.88988 27.8557C7.88988 27.5665 7.82829 27.2806 7.7092 27.017C7.59011 26.7534 7.41627 26.5182 7.19922 26.3271C6.5343 25.8247 5.68642 25.8029 4.88918 25.7824H4.88908C4.72058 25.778 4.55434 25.7738 4.39257 25.765ZM18.6837 22.3314H14.0799C15.7553 28.002 17.4271 33.6726 19.0954 39.3432H23.5953C24.6645 36.0855 25.7385 32.8277 26.8172 29.57C27.5005 31.7932 28.1922 34.0131 28.8842 36.2342L28.8843 36.2344L28.8847 36.236L28.8867 36.2422C29.209 37.2767 29.5314 38.3114 29.853 39.3468H34.3673C36.1692 33.6738 37.9663 28.0008 39.7586 22.3278H35.1513C34.8159 23.4848 34.4819 24.6414 34.148 25.7977L34.1466 25.8025C33.4261 28.2977 32.7059 30.7918 31.9723 33.286C30.8697 29.6321 29.7707 25.9805 28.6752 22.3314H25.1669C23.9903 25.9853 22.8053 29.6368 21.612 33.286C21.0287 31.1379 20.4577 28.9898 19.8868 26.8418L19.8861 26.8392L19.8859 26.8387L19.8858 26.8381L19.8857 26.8376L19.8855 26.8371L19.8854 26.8365C19.4862 25.3348 19.0871 23.8331 18.6837 22.3314ZM45.4146 22.3318H50.2082C52.3275 28.0048 54.4444 33.6754 56.5589 39.3436H52.1341L47.7738 27.5657C46.9815 29.6967 46.1954 31.8203 45.41 33.9423C44.744 35.7416 44.0785 37.5397 43.4099 39.34H38.9493C41.1116 33.6671 43.2667 27.9977 45.4146 22.3318ZM62.8884 22.3278H58.4887C58.4911 27.996 58.4899 33.6666 58.4851 39.3396H62.8813V28.9936C63.9113 30.3309 64.9473 31.6638 65.9833 32.9968L65.9847 32.9986L65.9853 32.9994L65.9856 32.9997C67.617 35.0987 69.2485 37.1979 70.8573 39.3145C72.0108 39.3477 73.1621 39.3446 74.3146 39.3415L74.3185 39.3414C74.6563 39.3405 74.9941 39.3396 75.3322 39.3396V22.3278H70.9361V32.7096C68.2487 29.2562 65.5662 25.7956 62.8884 22.3278ZM78.844 22.3284C79.8423 22.3784 80.8593 22.3544 81.8794 22.3303C84.4332 22.27 87.0063 22.2093 89.3547 23.3093C94.8283 25.8653 95.2257 34.8151 90.0706 37.9153C87.6713 39.5148 84.8407 39.4299 82.0464 39.3461C80.9632 39.3136 79.8855 39.2813 78.8404 39.3473L78.844 22.3284ZM83.2402 35.6134C84.7759 35.6134 86.5086 35.6134 87.7007 34.4714C89.4907 32.7531 89.4907 29.6851 88.1948 27.6696C87.0993 26.0765 84.9728 26.0765 83.2402 26.0944C83.2354 29.2662 83.2354 32.4392 83.2402 35.6134ZM105.2 22.3318H100.402C98.2426 27.9977 96.0863 33.6671 93.9336 39.34H98.4085C99.85 35.4236 101.295 31.5096 102.744 27.5979C104.185 31.5143 105.629 35.4284 107.075 39.34H111.543C109.426 33.6742 107.312 28.0048 105.2 22.3318ZM46.7935 35.6786C47.0436 34.8643 47.3126 34.0547 47.5814 33.2459C47.6434 33.0592 47.7054 32.8725 47.7672 32.6858C48.3652 33.0008 48.4364 33.6344 48.5078 34.2694C48.5484 34.6304 48.5891 34.9919 48.7266 35.2956C48.8369 35.5481 48.9431 35.8042 49.0496 36.0609C49.5378 37.238 50.0315 38.4281 50.9426 39.348H44.5346C45.3684 38.0077 45.9903 36.5465 46.3782 35.0163L46.7935 35.6786ZM102.113 34.5718C102.019 34.9695 101.925 35.365 101.759 35.692L101.365 35.001C100.971 36.5303 100.35 37.9917 99.5218 39.3363H105.898C104.28 37.5177 103.51 35.0977 103.152 32.7349C102.474 33.0517 102.292 33.8157 102.113 34.5718Z" fill="#141428"/>
</svg>
