<svg width="101" height="56" viewBox="0 0 101 56" fill="none" xmlns="http://www.w3.org/2000/svg">
<path fill-rule="evenodd" clip-rule="evenodd" d="M79.2793 6.19903L82.3265 3.8818L80.2294 0.950509L77.1822 3.26774L79.2793 6.19903ZM52.1446 6.1411L55.1917 3.82387L53.083 0.892578L50.0359 3.20981L52.1446 6.1411ZM87.297 38.9183C88.7618 38.9207 90.225 38.824 91.6766 38.6287C92.3161 38.0346 92.8302 37.3185 93.1883 36.5225C93.5465 35.7265 93.7416 34.8668 93.7621 33.9942C93.7621 31.0281 91.6766 29.7884 88.8264 29.7884H87.297V38.9183ZM82.454 49.4965V27.7493H89.3014C95.4769 27.7493 98.5704 30.333 98.5704 33.8552C98.5704 36.7169 96.6702 38.339 94.5731 39.5787L100.366 49.4965H95.1061L89.9618 40.7257C89.0777 40.8373 88.1881 40.8991 87.297 40.9111V49.4965H82.454ZM64.5303 43.0198H72.1424L68.3305 32.8124C66.9981 36.2882 65.77 39.5787 64.5303 43.0198ZM59.386 49.4965C62.5259 42.5448 65.2834 35.7669 68.5275 27.7608H71.4704L79.6502 49.4965H74.5175L72.8028 44.862H63.8583L62.3405 49.4965H59.386ZM42.5282 30.9586L42.5469 30.8934C44.8012 30.0104 47.1644 29.4361 49.5726 29.1859V49.4965H54.4851V29.1859C56.5846 29.462 58.6333 30.0395 60.5678 30.9007L61.5179 27.7608H43.4435L42.5469 30.8934L42.5282 30.9007V30.9586ZM28.9029 43.0082H36.4918L32.7842 32.9978L32.3878 33.9988C31.198 37.0019 30.0082 40.0051 28.9029 43.0082ZM23.5269 49.4965C26.6668 42.5448 29.5169 35.6742 32.6568 27.7493H35.5997L43.7795 49.4965H38.6468L36.9321 44.862H27.9876L26.4698 49.4965H23.5269ZM5.42936 38.0493C5.42936 45.2096 8.18686 47.7817 12.381 47.7817C13.1136 47.8023 13.8457 47.7284 14.5592 47.5616C15.7772 44.9729 16.3345 42.1227 16.1813 39.2659C16.1813 31.9319 13.4238 29.4524 9.33389 29.4524C8.65998 29.453 7.98938 29.5465 7.34107 29.7305C6.18245 31.3526 5.42936 33.7393 5.42936 38.0378V38.0493ZM0.389383 39.0805C0.389383 31.4568 5.99708 27.4944 11.0486 27.4944C15.4166 27.4944 21.2213 30.2519 21.2213 38.0841C21.2213 42.846 18.8461 47.1445 14.8489 48.9519C17.1106 50.1744 19.4616 51.224 21.8817 52.0918C22.9025 52.3889 23.9585 52.5486 25.0215 52.5668C25.4365 52.567 25.8509 52.536 26.2612 52.4741L26.4582 52.8564C24.9315 54.1092 23.086 54.9116 21.1286 55.1737C19.6455 55.1512 18.21 54.6469 17.0387 53.737L11.6164 49.7398C11.234 49.8073 10.846 49.8383 10.4577 49.8325C5.82328 49.8325 0.366211 46.9707 0.366211 39.15L0.389383 39.0805ZM94.9323 24.3198C96.3181 24.3208 97.6897 24.041 98.9643 23.4971L98.5356 22.0721C97.7966 22.3578 97.0107 22.5031 96.2184 22.5007C94.5847 22.5007 93.9011 21.8519 93.9011 20.0908V10.6702C97.2097 10.6773 100.03 10.2238 100.03 8.15719C100.046 7.81652 99.9737 7.47755 99.8216 7.17236H99.6478C98.589 7.99654 96.3508 8.3177 93.9011 8.43956V4.51904L90.4253 4.99408V8.51083C89.9526 8.5112 89.489 8.50941 89.0416 8.50768C88.6592 8.5062 88.2886 8.50477 87.9342 8.50477H86.428V8.63222C87.6637 9.4161 89.0149 9.9873 90.4253 10.3285V19.2798C90.2978 22.9874 92.1053 24.3198 94.9323 24.3198ZM78.0976 24.0185H81.5735V8.16868L78.0976 8.59737V24.0185ZM65.2602 24.3893C69.6282 24.3893 71.5167 22.5355 71.5167 19.8243C71.5167 18.0169 69.9294 16.418 67.9134 15.1899L67.8707 15.1623C66.0744 14.0035 63.3717 12.2599 63.3717 10.9725C63.3348 10.8059 63.3639 10.6315 63.4528 10.4859C63.9814 10.1252 64.6294 9.98397 65.2602 10.092C66.4361 10.1549 67.5787 10.5045 68.5885 11.1103C69.5982 11.7162 70.4444 12.5599 71.0533 13.5678L71.5746 9.8255C70.1055 8.74137 68.3257 8.1603 66.4999 8.16868C62.7692 8.16868 60.7068 9.97612 60.7068 12.3397C60.7068 14.5714 62.6178 15.8528 64.3916 17.0422C64.4964 17.1125 64.6007 17.1824 64.7041 17.2522C64.8049 17.3203 64.9072 17.3891 65.0106 17.4586C66.8068 18.6662 68.9098 20.0801 68.9098 21.5043V21.7708C68.3536 22.1583 67.6985 22.3793 67.0213 22.4081C65.789 22.3827 64.5782 22.0799 63.479 21.5223C62.3798 20.9647 61.4204 20.1665 60.6721 19.1871L60.1507 22.9294C61.6964 23.8556 63.4585 24.359 65.2602 24.3893ZM50.175 23.949H53.6509V8.0644L50.175 8.50468V23.949ZM36.4918 24.0185H38.7163C40.5701 18.8511 42.4934 13.591 44.5094 8.43516H41.9373C40.7787 12.4903 39.6201 16.4412 38.3803 20.1835C37.0943 16.4412 35.8893 12.4903 34.7655 8.43516H30.6987C32.7147 13.6026 34.6844 18.8627 36.4918 24.0185Z" fill="#141428"/>
</svg>
