<?xml version="1.0" encoding="UTF-8"?>
<svg id="Calque_1" data-name="Calque 1" xmlns="http://www.w3.org/2000/svg" xmlns:xlink="http://www.w3.org/1999/xlink" viewBox="0 0 1117.48 182.15">
  <defs>
    <style>
      .cls-1 {
        fill: none;
      }

      .cls-2 {
        fill: #12100b;
      }

      .cls-3 {
        clip-path: url(#clippath-1);
      }

      .cls-4 {
        clip-path: url(#clippath);
      }
    </style>
    <clipPath id="clippath">
      <rect class="cls-1" x="0" y="0" width="1117.48" height="182.15"/>
    </clipPath>
    <clipPath id="clippath-1">
      <rect class="cls-1" x="0" y="0" width="1117.48" height="182.15"/>
    </clipPath>
  </defs>
  <g class="cls-4">
    <polygon class="cls-2" points="284.93 182.15 307.15 182.15 307.15 .25 284.93 .25 284.93 182.15 284.93 182.15"/>
    <polygon class="cls-2" points="329.35 102.32 393.15 102.32 393.15 80.09 329.35 80.09 329.35 102.32 329.35 102.32"/>
    <polygon class="cls-2" points="415.35 182.15 437.57 182.15 437.57 .25 415.35 .25 415.35 182.15 415.35 182.15"/>
    <polygon class="cls-2" points="931.23 182.15 953.45 182.15 953.45 .26 953.45 .25 931.23 .25 931.23 182.15 931.23 182.15"/>
  </g>
  <path class="cls-2" d="M1005.37.25h-29.7v21.6h29.7c22.29,0,40.43,18.12,40.43,40.44s-18.14,40.45-40.43,40.45h-29.7v21.58h29.7c34.19,0,62.04-27.82,62.04-62.03S1039.57.25,1005.37.25"/>
  <path class="cls-2" d="M572.52,160.67c-38.32,0-69.47-31.18-69.47-69.5s31.16-69.48,69.47-69.48,69.5,31.16,69.5,69.48-31.18,69.5-69.5,69.5M572.52.24c-50.14,0-90.95,40.79-90.95,90.93s40.81,90.95,90.95,90.95,90.95-40.79,90.95-90.95S622.67.24,572.52.24"/>
  <g class="cls-3">
    <path class="cls-2" d="M793.42,160.67c-38.33,0-69.49-31.18-69.49-69.5s31.16-69.48,69.49-69.48,69.5,31.16,69.5,69.48-31.18,69.5-69.5,69.5M793.42.24c-50.13,0-90.93,40.79-90.93,90.93s40.8,90.95,90.93,90.95,90.95-40.79,90.95-90.95S843.55.24,793.42.24"/>
    <polygon class="cls-2" points="176.81 146.74 153.18 68.97 131.6 68.97 166.04 182.15 166.04 182.15 187.62 182.15 242.96 .24 221.39 .24 176.81 146.74 176.81 146.74"/>
    <polygon class="cls-2" points="21.58 .24 0 .24 34.42 113.42 55.99 113.42 21.58 .24 21.58 .24"/>
    <polygon class="cls-2" points="110.69 .24 55.35 182.15 76.9 182.15 132.27 .24 110.69 .24 110.69 .24"/>
  </g>
  <path class="cls-2" d="M1104.51,8.41h-2.45v4.37h2.45c1.41,0,2.37-.96,2.37-2.19s-.96-2.19-2.37-2.19h0ZM1106.88,20.65l-2.96-5.74h-1.85v5.74h-2.67V6.15h5.45c2.74,0,4.67,2.04,4.67,4.45,0,2.04-1.26,3.37-2.86,3.93l3.23,6.11h-3ZM1104.06,2.48c-6,0-10.75,4.82-10.75,10.93s4.74,10.94,10.75,10.94,10.71-4.82,10.71-10.94-4.71-10.93-10.71-10.93h0ZM1104.06,26.84c-7.41,0-13.42-6.01-13.42-13.42S1096.65,0,1104.06,0s13.42,6.01,13.42,13.42-6,13.42-13.42,13.42h0Z"/>
</svg>