<?xml version="1.0" encoding="UTF-8"?>
<svg id="Calque_1" data-name="Calque 1" xmlns="http://www.w3.org/2000/svg" viewBox="0 0 1422.48 432.06">
  <defs>
    <style>
      .cls-1 {
        fill: #0b61fe;
      }

      .cls-2 {
        fill: #0c61fe;
      }
    </style>
  </defs>
  <path class="cls-2" d="M979.98,175.45c11.56-31.27,21.4-63.37,33.5-94.44,1.28-3.3,3.95-12.36,6.27-13.84L1267.7,0l-30.71,119.58h138.56l-14.53,55.87h61.46l-31.4,116.1-62.48.65-17.42,58.75-121.16.44c-4.37,7.31-18.92,75.47-22.86,75.47h-212.87l70.4-251.42h-44.7ZM1031.38,139.69h40.23l-70.4,251.42h139.12l11.73-40.23h-96.1c20.34-77.37,43.27-154.09,65.07-231.06l34.98-9.18,1.57,2.7-55.8,201.78h41.9l73.19-263.71-170.22,45.71-15.26,42.56ZM1328.62,155.34h-46.37l-15.62,53.66-55.35,1.63c-1.6.94-1.94,2.58-2.55,4.15-4.75,12.1-6.77,28.46-10.84,41.12h54.75l-15.64,59.22h46.37l17.25-57.62,3.93-1.66,58.76-.46,12.25-45.3h-61.46l14.53-54.75Z"/>
  <path class="cls-1" d="M510.66,225.74c-7.25,42.72-14.13,88.18-27.62,129.38-14.77,45.13-37.65,72.62-87.99,76.27-100.67,7.29-112.34-44.77-97.29-130.81,8.62-49.28,22.11-113.53,38.56-160.35,21.16-60.23,52.54-82.07,117.96-77.69,60.72,4.07,80.39,54.28,63.19,107.72l-59.89,25.31c-2.58.57-1.79-2.06-1.56-3.8,2.32-17.53,18.38-56.09,4.4-70.57-9.36-9.69-40.75-7.69-51.35.14-12.02,8.88-19.47,40.15-23.48,54.74-12.52,45.62-24.81,98.86-32.14,145.53-2.23,14.19-9.23,43.81,4.2,53.21,8.65,6.05,38.27,5.33,47.96,1.18,13.92-5.95,21.04-28.03,25.4-41.65,6.18-19.3,10.55-40.56,13.72-60.59h-51.4l22.91-48.05h94.42Z"/>
  <path class="cls-1" d="M774.38,67.06l-79.9,359.81h-57.55l7.81-40.23-38.07,39.58c-21.8,6.17-51.97,7.68-70.33-7.72-24.02-20.15-17.21-55.35-11.93-82.36,17.36-88.74,41.14-176.42,58.96-265.1-.06-1.18,2.04-3.99,2.72-3.99h54.75c.61,0,1.78,1.89,1.73,2.82l-62.61,286.05c-4,31.47,38.66,23.64,57.44,18.33,3.25-.92,10.07-2.3,11.58-5.18l65.98-297.18c-.02-1.33,2.06-4.84,2.98-4.84h56.43Z"/>
  <path class="cls-1" d="M847.01,212.33h68.72c.69,0,2.34,2.27,1.19,3.4l-22.96,48.58-59.09.69-24.52,107.95c-.4.9,1.06,2.53,1.47,2.53h92.19l-22.91,51.4h-139.68l78.18-358.73,133.97-.92c1.48.38,1.59,1.36,1.82,2.65,1.47,8.03,2.04,21.68,2.29,30.12.09,2.95.78,19.6-1.72,19.6h-88.28l-20.67,92.75Z"/>
  <polygon class="cls-1" points="70.4 375.47 156.44 375.47 133.53 426.87 0 426.87 79.9 67.06 135.77 67.06 70.4 375.47"/>
  <polygon class="cls-1" points="310.64 67.06 230.75 426.87 173.2 426.87 254.21 67.06 310.64 67.06"/>
</svg>