<svg viewBox="0 0 121 97" fill="none" id="psg-final-slogan-2" xmlns="http://www.w3.org/2000/svg"><path d="M0 78.0494C0 58.1244 12.2615 43.5049 43.6228 40.2037L80.0537 35.9593C81.7043 35.7235 82.6475 34.4266 82.6475 32.7761V29.7107C82.6475 27.7064 81.4685 26.4095 79.4642 26.4095H41.3827C39.0247 26.4095 37.492 28.0601 37.492 30.4181V34.6624H33.1297V30.4181C33.1297 25.2305 36.313 22.0472 41.3827 22.0472H79.4642C84.0623 22.0472 87.0098 24.9947 87.0098 29.7107V32.7761C87.0098 36.9025 84.2981 39.85 80.1716 40.3216L44.2123 44.4481C15.7985 47.3956 4.3623 60.2466 4.3623 78.0494V91.7258H118.961V96.0881H0V78.0494ZM0.11792 34.6624V33.4834C0.471618 27.2348 3.30117 19.6892 9.07825 14.03C17.8028 5.18758 34.073 0 60.2466 0C86.774 0 103.634 4.83388 112.476 13.6763C117.664 18.8639 120.14 25.2305 120.14 31.715V32.894C120.14 47.2777 108.585 56.8275 78.7568 60.0108L38.4352 64.7268C36.313 65.0805 35.2519 66.0237 35.2519 67.6743V69.6786H118.961V74.0409H30.8896V67.6743C30.8896 64.0194 33.1297 61.5435 37.492 60.954L78.2852 55.7664C106.581 52.4653 115.777 45.5092 115.777 32.894V31.715C115.777 26.1737 113.537 20.8682 109.411 16.7417C101.511 8.84246 86.6561 4.36228 60.2466 4.36228C34.4267 4.36228 19.5713 9.54986 12.1437 17.0954C7.3098 21.9293 4.83386 28.178 4.48016 33.4834V34.6624H0.11792Z" fill="currentColor"></path></svg>