<svg viewBox="0 0 776 140" fill="none" id="psg-slogan-3" xmlns="http://www.w3.org/2000/svg"><path d="M0 137.47V2.53013H107.614C126.506 2.53013 141.012 8.60241 151.301 18.8916C161.422 29.0121 166.145 41.6627 166.145 54.3133V56C166.145 68.6506 161.422 81.3012 151.301 91.4217C141.012 101.542 126.506 107.783 107.614 107.783H40.1446V137.47H0ZM40.1446 76.241H114.53C120.265 76.241 123.807 72.5301 123.807 66.9639V45.0361C123.807 39.4699 120.096 35.759 114.53 35.759H40.1446V76.241Z" fill="currentColor"></path><path d="M158.931 137.47V135.783L226.907 2.53013H281.052L349.027 135.783V137.47H306.353L295.052 115.205H207.172L195.871 137.47H158.931ZM222.521 83.6627H279.702L262.329 49.4217L251.365 26.8193H251.027L239.895 49.4217L222.521 83.6627Z" fill="currentColor"></path><path d="M363.87 137.47V2.53013H473.845C490.544 2.53013 506.062 8.93976 515.677 18.5542C525.291 28.3374 530.014 40.1446 530.014 52.1205V53.8072C530.014 65.6145 525.628 76.4096 516.52 85.5181C511.46 90.5783 505.725 93.9518 498.303 96.6506L488.351 99.1807L495.604 104.241L530.014 135.108V137.47H482.616L446.52 100.867H404.014V137.47H363.87ZM404.014 72.8675H478.4C483.966 72.8675 487.677 69.1566 487.677 63.5904V45.0361C487.677 39.4699 483.966 35.759 478.4 35.759H404.014V72.8675Z" fill="currentColor"></path><path d="M549.675 137.47V2.53013H589.988V137.47H549.675Z" fill="currentColor"></path><path d="M694.233 140C654.426 140 633.342 133.084 621.197 120.94C614.113 113.855 610.065 105.422 608.041 94.7952V93.1084H650.041V99.3494C650.041 104.747 653.583 108.289 658.812 108.289H726.787C731.342 108.289 734.378 105.253 734.378 100.699V95.3012C734.378 90.5783 731.679 87.5422 727.125 87.0361L653.583 79.4458C626.426 76.5783 609.727 62.747 609.727 44.0241V42.3374C609.727 34.0723 613.101 24.9639 619.848 18.2169C630.812 7.25302 652.065 0 690.691 0C725.101 0 749.559 6.91566 762.04 19.2289C769.125 26.3133 773.51 36.2651 775.366 45.2048V46.8916H733.366V40.4819C733.366 35.253 729.824 31.7108 724.595 31.7108H658.812C654.257 31.7108 651.221 34.747 651.221 39.3012V45.2048C651.221 49.5904 653.751 52.2892 657.968 52.7952L727.968 60.3855C757.655 63.4217 775.703 75.3976 775.703 95.9759V97.6627C775.703 106.771 771.824 115.542 765.583 121.952C753.944 133.59 730.667 140 694.233 140Z" fill="currentColor"></path></svg>