<svg viewBox="0 0 545 98" fill="none" id="psg-final-slogan-1" xmlns="http://www.w3.org/2000/svg"><path d="M0 96.0881V1.7685H76.0451C90.4289 1.7685 100.804 5.06968 107.406 11.5542C112.24 16.5059 114.834 22.8725 114.834 28.6496V29.8286C114.834 35.9593 111.533 41.9722 105.992 45.6271V45.8629C113.537 50.8147 117.428 58.4781 117.428 66.2595V67.4385C117.428 73.6872 114.598 80.7611 110 85.3592C103.869 91.49 93.1406 96.0881 76.5167 96.0881H0ZM35.8414 74.6304H77.2241C78.8747 74.6304 80.0537 73.5693 80.0537 71.8008V61.1898C80.0537 59.5392 78.8747 58.3602 77.2241 58.3602H35.8414V74.6304ZM35.8414 39.9679H75.5735C77.342 39.9679 78.521 38.7889 78.521 37.1383V28.0601C78.521 26.2916 77.342 25.2305 75.5735 25.2305H35.8414V39.9679Z" fill="currentColor"></path><path d="M121.38 96.0881V94.9091L167.361 1.7685H213.931L259.912 94.9091V96.0881H221.831L215.582 83.3549H159.462L153.213 96.0881H121.38ZM171.723 56.9454H203.438L195.303 40.2037L187.758 23.462H187.522L179.858 40.2037L171.723 56.9454Z" fill="currentColor"></path><path d="M329.673 97.8565C302.202 97.8565 283.574 91.8437 272.609 80.7611C264.946 73.0977 259.876 61.7793 259.876 49.5178V48.3388C259.876 36.0772 264.946 24.7589 272.609 16.9775C283.574 6.01287 302.202 0 329.673 0C357.733 0 376.832 6.36657 387.797 17.3312C395.225 24.7589 398.29 33.4834 399.587 41.8543V43.0333H361.623V39.1426C361.623 32.6581 357.615 28.4138 350.895 28.4138H308.097C301.613 28.4138 297.368 32.7761 297.368 39.2605V58.596C297.368 65.0805 301.613 69.4428 308.097 69.4428H350.895C357.615 69.4428 361.623 65.1984 361.623 58.7139V54.8232H399.587V56.0022C398.29 64.3731 395.225 73.0977 387.797 80.5253C376.832 91.49 357.733 97.8565 329.673 97.8565Z" fill="currentColor"></path><path d="M413.191 96.0881V1.7685H449.033V36.6667H449.269L494.424 1.7685H540.877V2.94749L481.927 46.3345L544.531 94.9091V96.0881H494.424L449.269 60.8361H449.033V96.0881H413.191Z" fill="currentColor"></path></svg>