<?xml version="1.0" encoding="UTF-8"?>
<svg id="Layer_1" data-name="Layer 1" xmlns="http://www.w3.org/2000/svg" viewBox="0 0 720 204">
  <defs>
    <style>
      .cls-1 {
        fill: none;
      }

      .cls-2 {
        fill: #141428;
      }
    </style>
  </defs>
  <rect class="cls-1" width="720" height="204"/>
  <path class="cls-2" d="M77,64.3h0l-2.38.77v9.05c0,4.52-2.99,8.66-7.21,9.97l-24.61,7.82v13.42l32.27-10.2c7.67-2.38,12.27-9.05,12.27-17.79v-5.98c0-4.06-4.68-8.82-10.35-6.98"/>
  <path class="cls-2" d="M71.26,46.05c4.98-1.61,8.97-1.46,11.35-1.23l-5.75-4.22c-2.61-1.92-10.66-6.44-20.62-3.22l-43.31,13.72,12.73,9.35,45.69-14.49-.08.08Z"/>
  <path class="cls-2" d="M76.08,98.1l-36.41,11.58v-36.87l36.41-11.5c7.59-2.38,14.49,3.68,14.49,10.04v5.98c0,10.5-5.75,18.09-14.49,20.85M95.17,100.17s8.05-7.36,8.05-23.15v-6.67c0-10.43-11.96-27.29-31.05-21.23l-45.31,14.34v84.4l12.73-4.06v-20.77l40.86-12.96c7.59-2.38,13.95,3.6,13.95,10.27v8.2c0,8.36-7.36,20.24-18.94,23.92l-62.55,19.86,12.73,9.35,56.5-17.86c11.96-3.83,25.14-14.11,25.14-35.88v-8.43c0-13.19-12.04-19.4-12.04-19.4"/>
  <path class="cls-2" d="M91.34,128.62v-8.2c0-4.68-4.45-8.97-9.81-7.28l-2.91.92v11.35c0,5.6-3.6,10.5-8.89,12.19l-46,14.57V63.07l-12.73-9.35v115.91l63.63-20.16c9.97-3.14,16.71-13.34,16.71-20.85"/>
  <path class="cls-2" d="M689.14,122.33c0,1.53-.61,2.91-1.61,3.99-3.76,3.76-8.66,6.06-14.49,6.06-9.66,0-17.63-7.59-17.63-18.71s7.82-18.55,17.4-18.55,12.04,2.76,16.41,7.9v19.32h-.08ZM706.85,79.94h-16.33v5.98c-5.83-4.68-12.8-7.36-20.54-7.36-18.09,0-32.58,14.72-32.58,35.03s14.64,35.03,32.81,35.03,15.18-2.91,20.24-7.21v6.29h16.56v-67.77h-.23.08Z"/>
  <path class="cls-2" d="M183.41,132.45c-5.83,0-10.73-2.3-14.49-6.06-1.07-1.07-1.61-2.53-1.61-3.99v-19.32c4.45-5.14,10.04-7.9,16.41-7.9,9.51,0,17.4,7.74,17.4,18.55s-7.97,18.71-17.63,18.71M186.48,78.56c-7.21,0-13.65,2.3-19.17,6.36v-34.57l-17.94,5.67v91.84h16.56v-6.21c5.14,4.29,11.88,7.21,20.32,7.21,18.17,0,32.81-14.57,32.81-35.03s-14.49-35.19-32.58-35.19"/>
  <path class="cls-2" d="M609.33,122.33c0,1.53-.61,2.91-1.69,3.99-3.76,3.76-8.66,6.06-14.49,6.06-9.66,0-17.63-7.59-17.63-18.71s7.9-18.55,17.4-18.55,12.04,2.76,16.41,7.9v19.32ZM609.33,84.84c-5.52-3.99-12.11-6.29-19.17-6.29-18.09,0-32.58,14.72-32.58,35.11s14.64,35.03,32.81,35.03,15.18-2.91,20.24-7.21v6.29h16.56V50.35l-17.94,5.67v28.82h.08Z"/>
  <path class="cls-2" d="M450.03,122.18c0,1.53-.61,2.91-1.69,3.99-3.76,3.76-8.66,6.06-14.49,6.06-9.66,0-17.63-7.59-17.63-18.71s7.9-18.55,17.4-18.55,12.04,2.76,16.41,7.9v19.32ZM451.41,85.84c-5.75-4.68-12.8-7.21-20.54-7.21-18.09,0-32.58,14.57-32.58,34.88s14.64,35.26,32.81,35.26,15.18-3.14,20.24-7.44v6.44h16.56v-67.84h-16.56v5.9h.08Z"/>
  <path class="cls-2" d="M518.34,78.63c-7.44,0-14.64,2.76-20.01,7.36v-6.06h-16.56v67.84h17.94v-44.54c2.45-3.45,8.66-8.28,16.25-8.28s7.74,1.38,10.04,3.76c2.45,2.53,3.99,5.98,3.99,12.57v36.49h17.94v-34.8c0-11.5-2.38-18.71-6.75-23.99-5.37-6.52-13.8-10.43-22.92-10.43"/>
  <path class="cls-2" d="M355.82,132.14c-5.83,0-10.73-2.3-14.49-6.06-1.07-1.07-1.61-2.53-1.61-3.99v-19.32c4.45-5.14,10.04-7.9,16.41-7.9,9.51,0,17.4,7.74,17.4,18.55s-7.97,18.71-17.63,18.71M358.88,78.56c-7.74,0-14.8,2.53-20.54,7.21v-5.83h-16.56v96.9l17.94-5.67v-28.75c4.83,3.76,11.19,6.36,18.86,6.36,18.25,0,32.81-14.8,32.81-35.34s-14.49-34.88-32.58-34.88"/>
  <rect class="cls-2" x="229.56" y="79.94" width="17.94" height="67.84"/>
  <path class="cls-2" d="M238.53,50.35c-6.21,0-11.35,4.83-11.35,11.12s5.14,11.12,11.35,11.12,11.35-4.83,11.35-11.12-5.14-11.12-11.35-11.12"/>
  <path class="cls-2" d="M299.63,133.29c-2.61,0-4.83-.69-6.21-2.07-1.23-1.23-1.76-3.45-1.76-7.05v-29.67h17.71v-14.57h-17.71v-20.54l-17.94,5.67v14.87h-15.1v14.57h15.1v29.9c0,8.28,1.92,13.42,5.21,17.33,4.68,5.37,11.58,7.05,18.09,7.05s10.58-1.38,14.64-3.76l-5.9-13.03c-1.84.77-3.83,1.23-6.13,1.23"/>
</svg>