<?xml version="1.0" encoding="UTF-8"?>
<svg id="Layer_1" data-name="Layer 1" xmlns="http://www.w3.org/2000/svg" xmlns:xlink="http://www.w3.org/1999/xlink" viewBox="0 0 800 237.04">
  <defs>
    <linearGradient id="linear-gradient" x1="-212.62" y1="474.54" x2="-229.4" y2="491.32" gradientTransform="translate(1389.11 -2760.5) scale(5.93)" gradientUnits="userSpaceOnUse">
      <stop offset="0" stop-color="#00a0ff"/>
      <stop offset="0" stop-color="#00a1ff"/>
      <stop offset=".26" stop-color="#00beff"/>
      <stop offset=".51" stop-color="#00d2ff"/>
      <stop offset=".76" stop-color="#00dfff"/>
      <stop offset="1" stop-color="#00e3ff"/>
    </linearGradient>
    <linearGradient id="linear-gradient-2" x1="-200.58" y1="485.88" x2="-224.78" y2="485.88" gradientTransform="translate(1389.11 -2760.5) scale(5.93)" gradientUnits="userSpaceOnUse">
      <stop offset="0" stop-color="#ffe000"/>
      <stop offset=".41" stop-color="#ffbd00"/>
      <stop offset=".78" stop-color="orange"/>
      <stop offset="1" stop-color="#ff9c00"/>
    </linearGradient>
    <linearGradient id="linear-gradient-3" x1="-209.6" y1="488.12" x2="-232.35" y2="510.88" gradientTransform="translate(1389.11 -2760.5) scale(5.93)" gradientUnits="userSpaceOnUse">
      <stop offset="0" stop-color="#ff3a44"/>
      <stop offset="1" stop-color="#c31162"/>
    </linearGradient>
    <linearGradient id="linear-gradient-4" x1="-227.15" y1="466.05" x2="-216.99" y2="476.21" gradientTransform="translate(1389.11 -2760.5) scale(5.93)" gradientUnits="userSpaceOnUse">
      <stop offset="0" stop-color="#32a071"/>
      <stop offset=".07" stop-color="#2da771"/>
      <stop offset=".48" stop-color="#15cf74"/>
      <stop offset=".8" stop-color="#06e775"/>
      <stop offset="1" stop-color="#00f076"/>
    </linearGradient>
  </defs>
  <path d="M770.37,237.04H29.63c-16.59,0-29.63-13.04-29.63-29.63V29.63C0,13.04,13.04,0,29.63,0h740.74c16.59,0,29.63,13.04,29.63,29.63v177.78c0,16.59-13.04,29.63-29.63,29.63Z"/>
  <path d="M770.37,4.74c13.63,0,24.89,11.26,24.89,24.89v177.78c0,13.63-11.26,24.89-24.89,24.89H29.63c-13.63,0-24.89-11.26-24.89-24.89V29.63C4.74,16,16,4.74,29.63,4.74h740.74M770.37,0H29.63C13.04,0,0,13.63,0,29.63v177.78c0,16.59,13.04,29.63,29.63,29.63h740.74c16.59,0,29.63-13.04,29.63-29.63V29.63c0-16-13.04-29.63-29.63-29.63Z" style="fill: #a6a6a6;"/>
  <path d="M280.89,60.44c0,4.74-1.19,8.89-4.15,11.85-3.56,3.56-7.7,5.33-13.04,5.33s-9.48-1.78-13.04-5.33c-3.56-3.56-5.33-7.7-5.33-13.04s1.78-9.48,5.33-13.04c3.56-3.56,7.7-5.33,13.04-5.33,2.37,0,4.74.59,7.11,1.78,2.37,1.19,4.15,2.37,5.33,4.15l-2.96,2.96c-2.37-2.96-5.33-4.15-9.48-4.15-3.56,0-7.11,1.19-9.48,4.15-2.96,2.37-4.15,5.93-4.15,10.07s1.19,7.7,4.15,10.07,5.93,4.15,9.48,4.15c4.15,0,7.11-1.19,10.07-4.15,1.78-1.78,2.96-4.15,2.96-7.11h-13.04v-4.74h17.19v2.37h0ZM308.15,45.63h-16v11.26h14.81v4.15h-14.81v11.26h16v4.74h-20.74v-35.56h20.74v4.15ZM327.7,77.04h-4.74v-31.41h-10.07v-4.15h24.89v4.15h-10.07v31.41ZM354.96,77.04v-35.56h4.74v35.56h-4.74ZM379.85,77.04h-4.74v-31.41h-10.07v-4.15h24.3v4.15h-10.07v31.41h.59ZM436.15,72.3c-3.56,3.56-7.7,5.33-13.04,5.33s-9.48-1.78-13.04-5.33c-3.56-3.56-5.33-7.7-5.33-13.04s1.78-9.48,5.33-13.04c3.56-3.56,7.7-5.33,13.04-5.33s9.48,1.78,13.04,5.33c3.56,3.56,5.33,7.7,5.33,13.04s-1.78,9.48-5.33,13.04ZM413.63,69.33c2.37,2.37,5.93,4.15,9.48,4.15s7.11-1.19,9.48-4.15c2.37-2.37,4.15-5.93,4.15-10.07s-1.19-7.7-4.15-10.07c-2.37-2.37-5.93-4.15-9.48-4.15s-7.11,1.19-9.48,4.15c-2.37,2.37-4.15,5.93-4.15,10.07s1.19,7.7,4.15,10.07ZM448,77.04v-35.56h5.33l17.19,27.85v-27.85h4.74v35.56h-4.74l-18.37-29.04v29.04h-4.15Z" style="fill: #fff; stroke: #fff; stroke-miterlimit: 59.26; stroke-width: 1.19px;"/>
  <path d="M403.56,129.19c-14.22,0-25.48,10.67-25.48,25.48s11.26,25.48,25.48,25.48,25.48-10.67,25.48-25.48-11.26-25.48-25.48-25.48ZM403.56,169.48c-7.7,0-14.22-6.52-14.22-15.41s6.52-15.41,14.22-15.41,14.22,5.93,14.22,15.41c0,8.89-6.52,15.41-14.22,15.41ZM348.44,129.19c-14.22,0-25.48,10.67-25.48,25.48s11.26,25.48,25.48,25.48,25.48-10.67,25.48-25.48-11.26-25.48-25.48-25.48ZM348.44,169.48c-7.7,0-14.22-6.52-14.22-15.41s6.52-15.41,14.22-15.41,14.22,5.93,14.22,15.41c0,8.89-6.52,15.41-14.22,15.41ZM282.67,136.89v10.67h25.48c-.59,5.93-2.96,10.67-5.93,13.63-3.56,3.56-9.48,7.7-19.56,7.7-16,0-27.85-12.44-27.85-28.44s12.44-28.44,27.85-28.44c8.3,0,14.81,3.56,19.56,7.7l7.7-7.7c-6.52-5.93-14.81-10.67-26.67-10.67-21.33,0-39.7,17.78-39.7,39.11s18.37,39.11,39.7,39.11c11.85,0,20.15-3.56,27.26-11.26,7.11-7.11,9.48-17.19,9.48-24.89,0-2.37,0-4.74-.59-6.52h-36.74ZM551.7,145.19c-2.37-5.93-8.3-16-21.33-16s-23.7,10.07-23.7,25.48c0,14.22,10.67,25.48,24.89,25.48,11.26,0,18.37-7.11,20.74-11.26l-8.3-5.93c-2.96,4.15-6.52,7.11-12.44,7.11s-9.48-2.37-12.44-7.7l33.78-14.22-1.19-2.96h0ZM517.33,153.48c0-9.48,7.7-14.81,13.04-14.81,4.15,0,8.3,2.37,9.48,5.33l-22.52,9.48h0ZM489.48,177.78h11.26v-74.07h-11.26v74.07ZM471.7,134.52c-2.96-2.96-7.7-5.93-13.63-5.93-12.44,0-24.3,11.26-24.3,25.48s11.26,24.89,24.3,24.89c5.93,0,10.67-2.96,13.04-5.93h.59v3.56c0,9.48-5.33,14.81-13.63,14.81-6.52,0-11.26-4.74-12.44-8.89l-9.48,4.15c2.96,6.52,10.07,14.81,22.52,14.81s23.7-7.7,23.7-26.07v-45.04h-10.67v4.15h0ZM458.67,169.48c-7.7,0-14.22-6.52-14.22-15.41s6.52-15.41,14.22-15.41,13.63,6.52,13.63,15.41-5.93,15.41-13.63,15.41ZM603.26,103.7h-26.67v74.07h11.26v-27.85h15.41c12.44,0,24.3-8.89,24.3-23.11s-11.85-23.11-24.3-23.11ZM603.85,139.26h-16v-25.48h16c8.3,0,13.04,7.11,13.04,12.44-.59,6.52-5.33,13.04-13.04,13.04h0ZM672,128.59c-8.3,0-16.59,3.56-19.56,11.26l10.07,4.15c2.37-4.15,5.93-5.33,10.07-5.33,5.93,0,11.26,3.56,11.85,9.48v.59c-1.78-1.19-6.52-2.96-11.26-2.96-10.67,0-21.33,5.93-21.33,16.59,0,10.07,8.89,16.59,18.37,16.59,7.7,0,11.26-3.56,14.22-7.11h.59v5.93h10.67v-28.44c-1.19-13.04-11.26-20.74-23.7-20.74h0ZM670.81,169.48c-3.56,0-8.89-1.78-8.89-6.52,0-5.93,6.52-7.7,11.85-7.7,4.74,0,7.11,1.19,10.07,2.37-1.19,7.11-7.11,11.85-13.04,11.85ZM733.04,130.37l-12.44,32h-.59l-13.04-32h-11.85l19.56,45.04-11.26,24.89h11.26l30.22-69.93h-11.85ZM633.48,177.78h11.26v-74.07h-11.26v74.07Z" style="fill: #fff;"/>
  <g>
    <path d="M61.63,44.44c-1.78,1.78-2.37,4.74-2.37,8.3v130.96c0,3.56,1.19,6.52,2.96,8.3l.59.59,73.48-73.48v-1.19L61.63,44.44Z" style="fill: url(#linear-gradient);"/>
    <path d="M160,144l-24.3-24.3v-1.78l24.3-24.3.59.59,29.04,16.59c8.3,4.74,8.3,12.44,0,17.19l-29.63,16Z" style="fill: url(#linear-gradient-2);"/>
    <path d="M160.59,143.41l-24.89-24.89-74.07,74.07c2.96,2.96,7.11,2.96,12.44.59l86.52-49.78" style="fill: url(#linear-gradient-3);"/>
    <path d="M160.59,93.63l-86.52-49.19c-5.33-2.96-9.48-2.37-12.44.59l74.07,73.48,24.89-24.89h0Z" style="fill: url(#linear-gradient-4);"/>
    <path d="M160,142.81l-85.93,48.59c-4.74,2.96-8.89,2.37-11.85,0l-.59.59.59.59c2.96,2.37,7.11,2.96,11.85,0l85.93-49.78Z" style="isolation: isolate; opacity: .2;"/>
    <path d="M61.63,191.41c-1.78-1.78-2.37-4.74-2.37-8.3v.59c0,3.56,1.19,6.52,2.96,8.3v-.59h-.59ZM189.63,126.22l-29.63,16.59.59.59,29.04-16.59c4.15-2.37,5.93-5.33,5.93-8.3,0,2.96-2.37,5.33-5.93,7.7Z" style="isolation: isolate; opacity: .12;"/>
    <path d="M74.07,45.04l115.56,65.78c3.56,2.37,5.93,4.74,5.93,7.7,0-2.96-1.78-5.93-5.93-8.3L74.07,44.44c-8.3-4.74-14.81-1.19-14.81,8.3v.59c0-8.89,6.52-13.04,14.81-8.3Z" style="fill: #fff; isolation: isolate; opacity: .25;"/>
  </g>
</svg>