<?xml version="1.0" encoding="UTF-8"?>
<svg id="Calque_1" data-name="Calque 1" xmlns="http://www.w3.org/2000/svg" viewBox="0 0 1005.33 1800">
  <path d="M344.78,497.74l14.99,26.07c39.98,64.23,126.23,95.54,198.64,73.07,88.61-27.49,73.12-121.36,2.54-160.63-63.13-35.13-141.82-20.69-204.58,7.54-5.76,2.59-31.72,14.86-34.13,18.31-4.12,5.89-9.4,36.81-10.47,45.47-24.26,197.15,143.36,396.18,333.66,430.7.59.48-.98,2.02-1.74,2.61-6.4,4.95-35.81,13.56-45.08,16.11-123.6,33.93-255.58-1.66-343.9-93.88-27.49-28.7-30.28-39.32-37.01-78.37-17.03-98.89-9.79-198.08,18.66-294.01-32.24,23.81-54.03,58.68-74.29,92.64,15.91-165.72,159.56-297.75,325.08-305.98,196.12-9.75,411.63,167.41,322.9,375.34-66.77,156.47-293.02,163.85-399.77,44.3-50.12-56.14-63.03-125.91-65.51-199.3Z"/>
  <path d="M804.51,123.64l-75.97,143.36c-122.16-75.35-278.22-84.31-407.68-21.3-7.14,3.47-37.14,22.33-41.45,21.42l-72.82-140.81c-.23-3.86.27-2.23,2.68-2.64,15.05-2.57,29.96-4.24,44.92-7.57,89.21-19.87,174.11-56.4,250.51-106.03,91,56.81,192.35,100.64,299.81,113.57Z"/>
  <path d="M598.23,1214.45l28.87-96.11c7.37-20.58,35.36-26.98,48.8-8.66,12.55,17.11,17.06,56.67,25.45,77.24l5.92,2.85c6.08-1.47,20.32-70.28,30.78-82.37,10.64-12.3,30.23-10.55,40.94.58,11.27,11.72,23.41,82.23,29.91,83.74,2.78.65,5.27-3.74,6.44-5.77,11.79-20.45,20.16-58.73,34.17-75.96,14.11-17.35,39.52-13.9,49.04,6.04l42.3,98.42h-25.35c-2.59,0-11.56-27.51-14.18-31.58l-57.2.04c-2.46.59-9.77,29.32-26.92,32.88-44.69,9.27-41.92-58.64-54.53-86.26-3.4-7.43-6.71-5.01-9.75,1-9.75,19.25-13,60.26-25.61,75.78-13.22,16.26-36.68,12.17-46.14-5.76l-23.33-74.21c-7.83-4.33-7.95,1.93-9.8,7.69-8.43,26.31-14.53,53.77-21.85,80.41h-27.97ZM891.92,1160.26c-3.35-6.58-11.88-36.21-18.4-36.83-9.23-.88-17.7,28.76-20.06,36.83h38.46Z"/>
  <path d="M449.65,1261.65l28.84,71.69,29.72-71.69h30.59v111.88c-3.94-.43-22.73,1.66-22.73-2.62v-69.05l-27.79,65.35c-1.62,2.11-17.9,1.89-20.34-.62l-27.04-64.73v69.05c0,3.93-24.47,3.93-24.47,0v-109.26h33.21Z"/>
  <path d="M307.17,1100.83c24.72,3.83,35.39,31.57,25.06,53.03-4.91,10.2-10.57,11.24-19.97,14.99-1.7.68-3.12-.97-2.5,2.79,1.6,9.62,24.29,30.73,26.26,42.82h-29.72c-3.73-6.94-22.38-40.21-28.84-40.21h-30.59v40.21h-26.22v-111c0-.19,2.44-2.62,2.62-2.62h83.91ZM246.86,1151.52h51.57c9.2,0,14.19-12.73,10.46-20.96-.72-1.59-7.61-7.01-8.71-7.01h-53.32v27.97Z"/>
  <path d="M586,1100.83v22.73h-63.81c-2.1,0-12.61,4.27-14.94,6.04-4.93,3.73-7.76,10.69-8.66,16.69h87.41v22.73h-87.41c6.41,37.63,59.21,17.05,85.77,23.49,3.46,2.41.86,17.2,1.64,21.96h-72.55c-2.9,0-18.06-6.35-21.32-8.4-35.81-22.48-25.44-105.23,23.06-105.23h70.8Z"/>
  <path d="M295.81,1373.53h-27.1c-4.41,0-18.19-35.39-21.83-37.61-3.87-2.36-12.75-.13-17.5-.85v38.46h-26.22v-111.88c22.76-.25,64.9-7.85,80.4,13.12,9.28,12.56,9.82,34.63-.97,46.2-3.46,3.71-11.33,5.86-11.04,9.39l24.25,43.16ZM229.38,1282.63v31.47c16.69.46,39.33,2.61,34.1-21.03-3.18-14.38-23.21-9.78-34.1-10.44Z"/>
  <path d="M816.75,1373.53h-27.1c-4.16,0-18.09-35.33-21.83-37.61s-12.75-.13-17.5-.85v38.46h-26.22v-111.88c28.32-.82,81.47-10.39,86.94,29.29,1.33,9.68-.8,22.51-7.5,30.04-3.48,3.91-11.35,5.67-11.33,9.67.04,5.29,23.7,33.92,24.54,42.88ZM750.32,1282.63v31.47c13.48-.25,34.21,4.01,35.08-14.88.94-20.39-21.04-16.53-35.08-16.58Z"/>
  <path d="M206.66,1214.45h-25.35c-4.89,0-8.88-30.38-19.13-31.56-15.99-1.84-35.83,1.31-52.26.38-4.78,1.64-12.28,31.18-16.01,31.18h-25.35l45.76-103.7c13.95-18.59,40-14.54,50.07,5.24l42.26,98.46ZM119.25,1160.26h36.71c-1.76-9.32-6.33-20.18-10.49-28.85-2.63-5.49-4.23-11.63-11.5-6.24-3.17,2.35-16.41,33.48-14.72,35.09Z"/>
  <path d="M381.47,1100.83v45.45c8.42-.56,16.92,1.99,24.4-2.7,7.92-4.97,32.81-42.75,35.91-42.75h27.1l-40.23,56.78,40.23,56.85h-29.72c-.6,0-4.31-7.85-6.31-10.31-14.46-17.84-24.25-40.86-51.38-35.15v45.45h-26.22v-113.63h26.22Z"/>
  <path d="M601.73,1418.98h24.47v83.04c0,1.77-4.17,11.5-5.53,13.7-14.06,22.77-67.7,23.34-82.3.71-1.42-2.2-6.57-12.9-6.57-14.41v-83.04c5.33,1.07,24.16-2.7,25.98,2.87,2.45,22.63-2.43,49.37.2,71.47,1.86,15.63,16.6,19.28,30.27,16.2,5.56-1.26,13.48-11.26,13.48-16.24v-74.29Z"/>
  <path d="M699.62,1261.65v20.98h-52.44v22.73h45.45v20.98h-42.83c-4.4,0-2.1,20.7-2.62,24.47h54.19v22.73h-77.79c-.19,0-2.62-2.44-2.62-2.62v-109.26h78.66Z"/>
  <path d="M391.96,1261.65v20.98h-50.7v22.73h42.83c4.15,0,2.28,17.25,2.62,20.98h-45.45v24.47h52.44v22.73h-78.66v-111.88h76.92Z"/>
  <path d="M912.89,1261.65v20.98h-50.7v22.73h42.83c4.15,0,2.28,17.25,2.62,20.98h-45.45v24.47h52.44v22.73h-78.66v-111.88h76.92Z"/>
  <path d="M731.09,1418.98v22.73h-50.7v22.73h45.45c-.34,3.73,1.53,20.98-2.62,20.98h-42.83v24.47h52.44v20.98h-78.66v-111.88h76.92Z"/>
  <path d="M94.78,1261.65c35.54-1.1,90.36-10.73,87.47,41.16-1.99,35.7-32.05,38.35-61.26,37.49-.98,5.9,2.06,29.89-1.63,32.46s-19.22-.25-24.58.76v-111.88ZM121,1317.59c19.28,3.11,39.07,2.11,34.54-23.18-.72-4.01-5.04-11.78-9.19-11.78h-25.35v34.96Z"/>
  <path d="M507.33,1527.37c-39.24,11.58-84.88,8.62-89.22-41.02-4.09-46.85,17.27-72.76,65.39-68.89,3.39.27,20.03,3.1,21.3,4.92,2.4,3.42-.11,16.2.77,21.08-14.88-1.64-38.57-8.35-51.6,1.7-13.14,10.13-13.26,55.01,2.19,62.57,4.83,2.37,28.44,4.13,28.44-.47v-34.09h22.73v54.19Z"/>
  <polygon points="302.8 1418.98 302.8 1509.88 350 1509.88 350 1530.86 276.58 1530.86 276.58 1418.98 302.8 1418.98"/>
  <rect x="369.23" y="1418.98" width="24.47" height="111.88"/>
  <rect x="568.52" y="1261.65" width="24.47" height="110.13"/>
  <path d="M657.67,1226.69c1.18.79,11.5,25.22,10.48,26.21-6.84-.5-13.37,1.97-19.34-2.49-4.95-3.7-14.78-17.6-17.36-23.72,4.44.95,24.3-1.28,26.22,0Z"/>
</svg>